<svg version="1.1" id="Layer_1" xmlns="http://www.w3.org/2000/svg" xmlns:xlink="http://www.w3.org/1999/xlink" x="0px" y="0px"
	 width="100%" viewBox="0 0 512 512" enable-background="new 0 0 512 512" xml:space="preserve">
<path fill="#FFFFFF" opacity="1.000000" stroke="none"
			d="
M341.000000,513.000000 
	C227.360947,513.000000 114.221886,513.000000 1.041413,513.000000 
	C1.041413,342.402588 1.041413,171.805161 1.041413,1.103867 
	C171.555725,1.103867 342.111542,1.103867 512.833679,1.103867 
	C512.833679,171.666534 512.833679,342.333252 512.833679,513.000000 
	C455.805145,513.000000 398.652557,513.000000 341.000000,513.000000 
M170.726181,291.293671 
	C170.726181,291.293671 171.000702,290.994659 171.861267,291.022522 
	C172.791794,291.942932 174.343689,292.739258 174.556091,293.803040 
	C176.535034,303.714447 181.255371,308.557892 191.774948,311.023315 
	C193.756439,312.404877 195.554199,314.363953 197.752701,315.063263 
	C205.344101,317.478210 212.082214,314.428619 218.676193,311.045898 
	C220.109589,310.310577 221.587555,309.662079 223.044968,308.973572 
	C223.288925,309.339783 223.532883,309.705994 223.776840,310.072205 
	C222.800613,311.333496 221.882462,312.645142 220.838943,313.848083 
	C212.657623,323.279144 204.158417,332.454895 196.378922,342.205414 
	C192.516708,347.046112 189.170914,352.635895 187.018173,358.417969 
	C184.342239,365.605194 189.598480,371.240112 197.147964,369.555206 
	C202.240402,368.418671 207.096298,366.015930 211.886154,363.806976 
	C214.784821,362.470215 217.355316,360.421814 220.569839,358.377258 
	C220.569839,359.929565 220.554123,360.725983 220.572311,361.521637 
	C220.726074,368.246216 224.779449,371.336151 231.163818,369.007660 
	C234.681122,367.724823 238.130798,365.768097 241.039261,363.410065 
	C246.461441,359.014069 251.200806,353.758331 256.723236,349.508698 
	C261.718719,345.664642 261.262329,341.063873 260.557770,335.556732 
	C251.920944,343.127899 243.705780,350.329437 234.867416,356.975708 
	C234.640808,356.814453 234.414215,356.653229 234.502014,355.877167 
	C256.323914,331.129395 278.145813,306.381622 300.643188,280.867828 
	C296.889709,280.867828 294.238556,281.147156 291.668701,280.808746 
	C286.572906,280.137665 283.133087,282.000946 279.755310,285.946228 
	C268.832855,298.703857 257.606964,311.211670 246.216278,323.555756 
	C234.576508,336.169830 222.220978,348.054901 207.477737,357.091888 
	C204.393127,358.982635 200.865952,360.151337 197.542709,361.652740 
	C197.284821,361.235413 197.026917,360.818054 196.769028,360.400726 
	C197.895996,359.008453 198.981216,357.579803 200.156403,356.229462 
	C213.150955,341.298370 226.099228,326.326294 239.188583,311.478638 
	C246.152206,303.579620 250.568665,294.773499 250.714249,283.733063 
	C251.169159,283.174133 251.624069,282.615173 252.536484,281.705536 
	C252.727951,281.172028 252.919434,280.638550 253.762177,279.945709 
	C254.036102,279.208649 254.310028,278.471588 254.583954,277.734497 
	C254.214142,277.615845 253.844345,277.497162 253.474533,277.378479 
	C253.289871,278.233459 253.105225,279.088470 252.462845,280.293976 
	C252.271515,280.827545 252.080200,281.361115 251.266159,281.940796 
	C250.849976,281.949280 250.433792,281.957764 249.580139,281.427551 
	C248.056442,276.077698 243.907013,273.937805 238.951324,273.047394 
	C236.371109,272.583740 233.695007,272.653717 231.085754,271.763794 
	C231.742401,270.047150 232.399048,268.330536 233.278687,266.030975 
	C232.372726,265.688171 231.268646,265.270355 230.066055,264.414551 
	C230.066055,264.414551 229.993179,263.970215 229.990967,263.261932 
	C229.361450,261.807556 228.731949,260.353149 227.967941,258.345947 
	C227.638077,258.039795 227.308197,257.733673 226.978317,257.427521 
	C226.793762,257.641266 226.609192,257.855011 226.424652,258.068787 
	C226.918198,258.411133 227.411743,258.753448 227.656418,259.703522 
	C227.771408,261.129669 227.886383,262.555817 228.277481,264.495636 
	C228.805161,264.715363 229.332840,264.935089 229.568115,265.822327 
	C229.052795,268.158325 228.537476,270.494324 227.252792,273.058044 
	C221.839615,274.648163 216.426453,276.238281 210.912292,277.222839 
	C210.288574,276.801453 209.664871,276.380066 208.991821,275.483917 
	C208.862717,275.215454 208.733612,274.946960 208.604507,274.678497 
	C208.724960,275.126953 208.845413,275.575409 208.991425,276.882812 
	C209.047119,277.740387 209.102814,278.597931 208.713547,279.929565 
	C207.609680,280.648895 206.430847,281.276001 205.413773,282.102173 
	C197.139542,288.823303 189.910355,296.164368 189.744308,307.892059 
	C179.936996,304.757843 175.808014,298.565491 177.641388,288.437958 
	C178.649887,280.540009 181.654602,277.019989 186.947800,277.429169 
	C186.519302,278.478973 186.080902,279.552979 185.642502,280.626984 
	C186.207611,280.806946 186.772720,280.986877 187.337830,281.166809 
	C187.786453,279.291687 188.699951,277.348511 188.440506,275.577087 
	C188.345123,274.925873 185.090240,273.853790 183.941010,274.392151 
	C178.736099,276.830414 175.647934,280.934845 175.316620,287.102753 
	C173.882751,288.110687 172.448883,289.118622 170.469986,290.078796 
	C170.308334,290.163208 170.146683,290.247620 169.170837,290.405762 
	C166.221512,290.736755 163.272186,291.067749 160.322861,291.398743 
	C160.380356,291.926331 160.437866,292.453918 160.495361,292.981506 
	C163.331451,292.623260 166.167526,292.265015 169.547226,291.930298 
	C169.794800,291.700043 170.042374,291.469788 170.228607,291.311279 
	C170.228607,291.311279 170.321655,291.327332 170.726181,291.293671 
M299.380493,253.028046 
	C299.380493,253.028046 299.711761,253.015656 299.973846,253.726440 
	C300.993958,255.787079 302.072418,257.821381 303.017517,259.915833 
	C303.945770,261.972900 304.738617,264.091095 305.522583,266.014862 
	C307.755798,264.116150 310.901489,261.441681 314.602325,258.578369 
	C321.995514,254.431381 331.098877,260.515594 328.663025,266.787689 
	C331.627045,264.620605 334.501434,262.414642 337.483276,260.365021 
	C341.312805,257.732819 345.503296,255.553802 349.042053,252.587540 
	C354.162170,248.295731 355.453278,242.482742 352.687469,236.848221 
	C350.303101,231.990738 349.464844,227.543793 353.957275,223.423157 
	C348.026184,222.261505 354.064545,220.554977 353.072021,219.676132 
	C350.574951,218.581589 347.925446,217.458740 346.491730,215.462631 
	C345.810516,214.514145 347.447479,211.900650 347.642120,211.283859 
	C343.344238,214.641937 337.866638,218.921768 332.499512,223.115295 
	C330.143280,219.688644 328.098419,216.714767 326.128418,213.849823 
	C323.124969,216.679382 319.577972,220.021011 315.646027,223.725311 
	C322.520874,223.584412 323.881226,224.982895 323.929565,231.545975 
	C323.956573,235.211624 323.597168,238.915573 324.003815,242.535782 
	C324.924286,250.730576 321.479889,256.041962 313.724792,258.255219 
	C309.416382,257.031799 307.173553,254.080597 307.017395,249.706573 
	C306.851868,245.068863 306.913910,240.420364 306.976532,235.777939 
	C307.038818,231.157425 305.560028,225.925583 312.058472,224.012207 
	C307.538635,221.412262 303.614410,219.307755 299.890381,216.894241 
	C299.065765,216.359787 298.948700,214.733612 298.703796,214.112320 
	C296.729828,215.861481 293.815552,218.443832 290.274933,221.050323 
	C289.514221,221.911514 288.753510,222.772690 287.375580,223.956635 
	C286.094910,225.486938 284.723267,226.950760 283.548492,228.558456 
	C276.262665,238.528915 275.748688,250.308853 281.910553,259.297455 
	C283.110352,261.047638 283.507477,263.347992 283.929199,264.994690 
	C283.650146,265.196991 283.371094,265.399292 283.092041,265.601624 
	C283.462830,265.492279 283.833588,265.382935 284.692139,264.800507 
	C288.506439,261.521362 292.320740,258.242249 296.725342,254.937256 
	C297.132690,254.363129 297.540009,253.788986 298.492371,253.082153 
	C298.677979,253.060226 298.863586,253.038315 299.380493,253.028046 
M251.427277,245.766083 
	C251.411133,245.407043 251.395004,245.047989 251.378845,244.688950 
	C251.244141,245.119415 251.109436,245.549881 250.699554,246.102448 
	C250.805893,246.076202 250.912231,246.049957 251.427277,245.766083 
M214.242538,160.423279 
	C214.596970,160.407211 214.951385,160.391144 215.305817,160.375076 
	C214.876465,160.244217 214.447098,160.113342 213.685837,159.498749 
	C213.141556,159.314758 212.597275,159.130753 211.956711,158.378738 
	C211.543671,158.089676 211.130630,157.800613 210.717590,157.511536 
	C210.628906,157.771057 210.415802,158.224197 210.471069,158.259689 
	C210.943619,158.563309 211.464813,158.791260 212.325012,159.514816 
	C212.879623,159.681931 213.434235,159.849045 214.242538,160.423279 
M220.701004,248.771362 
	C221.143997,248.862656 221.586990,248.953934 222.028366,248.978638 
	C222.028366,248.978638 221.962448,248.969162 221.349350,249.500183 
	C221.128403,250.612991 220.907455,251.725784 220.711105,252.714706 
	C221.951782,253.157425 223.378143,253.666412 224.889359,254.784653 
	C225.127747,255.083572 225.366135,255.382507 225.604523,255.681442 
	C225.514206,255.015762 225.423874,254.350082 225.220459,253.015625 
	C225.886658,252.060730 226.552841,251.105835 227.880676,249.973221 
	C229.881027,248.860184 231.881378,247.747162 233.943146,247.451874 
	C234.088608,248.816010 234.234055,250.180161 234.433975,252.055206 
	C235.731186,251.045135 236.470642,250.469360 237.919815,250.324875 
	C241.988007,250.710464 246.056213,251.096039 250.143295,252.109772 
	C251.222183,253.136459 252.301086,254.163147 253.759171,255.842178 
	C253.633987,257.343781 253.508804,258.845398 252.752045,260.597534 
	C251.492065,261.425629 250.232101,262.253723 248.996902,263.566254 
	C249.139221,263.833435 249.281540,264.100647 249.423828,264.367828 
	C249.620300,263.980682 249.816772,263.593536 250.702026,263.076050 
	C251.884354,262.469543 253.066681,261.863068 255.001816,261.183563 
	C255.929245,264.286133 256.856689,267.388733 257.904633,270.894501 
	C258.065613,269.876556 258.426636,269.079254 258.260742,268.413208 
	C256.574127,261.641602 259.011322,256.382721 264.658752,251.683304 
	C277.638367,234.752869 270.581696,212.572723 261.383911,208.756287 
	C263.448120,212.747192 265.758820,216.325241 267.225800,220.221008 
	C271.315460,231.081802 268.143402,241.060318 262.271912,251.062302 
	C260.469177,253.215820 258.666443,255.369339 256.848236,257.541321 
	C255.605316,256.367859 254.803513,255.610870 253.946350,254.208099 
	C252.742264,253.158646 251.538193,252.109177 250.037292,250.361481 
	C245.763443,249.275192 241.489578,248.188919 236.617798,246.850327 
	C236.042328,246.553497 235.466873,246.256683 235.188187,245.352753 
	C236.545914,244.142532 238.010406,243.031509 239.243027,241.705032 
	C244.772888,235.754242 245.855087,228.799545 242.825134,221.481293 
	C239.788589,214.147110 233.954269,210.646164 225.034348,210.561417 
	C226.255020,209.668655 227.475693,208.775909 229.447739,207.913651 
	C230.710709,207.214111 231.973663,206.514572 233.236618,205.815048 
	C232.892563,205.290939 232.548508,204.766830 232.204453,204.242722 
	C231.121262,205.200500 230.038071,206.158264 228.211929,206.862778 
	C226.997421,206.790512 225.783249,206.711914 224.568344,206.647095 
	C219.730408,206.388977 214.892227,206.135162 210.089417,205.218094 
	C210.463211,204.454697 210.837021,203.691284 211.688400,202.756607 
	C213.173141,202.023819 214.657883,201.291031 216.142609,200.558243 
	C215.935440,200.179245 215.728256,199.800247 215.521072,199.421249 
	C213.751984,199.943558 211.982910,200.465881 210.077637,200.087906 
	C210.014816,197.044357 209.951996,194.000793 210.636261,190.391754 
	C218.925949,191.107132 226.302032,189.149643 232.889053,182.872879 
	C234.002182,181.309082 235.115311,179.745285 236.228439,178.181488 
	C235.727783,177.822144 235.227127,177.462814 234.726471,177.103470 
	C233.482254,178.647842 232.238037,180.192200 230.209442,182.078247 
	C221.903885,184.891983 214.491943,183.582855 209.031097,176.829880 
	C210.078201,176.095413 211.125320,175.360947 212.172424,174.626495 
	C211.738617,174.168823 211.304810,173.711166 210.870987,173.253494 
	C209.914856,174.536270 208.958725,175.819046 207.268585,176.985657 
	C202.589828,179.294769 197.911072,181.603882 192.542923,183.993958 
	C191.359985,184.882660 190.177032,185.771362 188.375061,186.983749 
	C184.471024,191.662689 180.566971,196.341614 175.930664,200.592316 
	C174.295685,193.493790 172.175095,192.262772 163.000900,193.888809 
	C161.627243,189.935501 160.193283,185.808670 158.905289,180.696060 
	C158.905289,177.702316 158.905289,174.708572 158.905289,171.714813 
	C157.252655,176.982803 157.172409,179.447891 157.301971,181.247070 
	C158.525131,185.846954 159.748276,190.446823 161.047821,195.333984 
	C160.061523,195.966446 158.476501,196.982849 156.204163,198.074402 
	C153.801315,200.660629 151.398453,203.246841 148.503693,206.361694 
	C147.361633,211.107574 145.368942,215.836594 145.274536,220.603226 
	C145.128632,227.971359 149.493774,233.566360 154.305954,237.202988 
	C148.729980,242.881012 142.586838,247.804276 138.155518,253.959869 
	C131.430588,263.301483 132.271179,275.047424 139.084305,283.670654 
	C144.637726,289.629822 151.414062,292.458984 159.544067,291.875671 
	C152.426941,290.647217 145.840195,288.387299 140.509125,282.054871 
	C139.304779,278.827423 137.511871,275.691010 136.996170,272.357056 
	C134.531418,256.422363 147.102722,245.477234 156.915543,240.206284 
	C158.046021,239.599060 159.773972,240.056229 161.222702,240.097473 
	C168.465012,240.303741 175.706573,240.535904 183.706116,240.736618 
	C187.683121,239.215637 191.660126,237.694656 196.302963,235.982239 
	C197.185226,235.856750 198.067505,235.731277 199.509537,235.962006 
	C202.335617,237.051224 205.161682,238.140427 207.979416,239.972687 
	C207.998260,243.077866 209.241577,243.948624 212.610504,242.024689 
	C213.405807,242.366364 214.201111,242.708038 215.001205,242.995316 
	C215.001205,242.995316 214.948807,243.010666 215.159439,243.762909 
	C215.786804,243.853271 216.414169,243.943634 217.026352,243.966309 
	C217.026352,243.966309 216.957016,243.968124 216.524048,244.662186 
	C217.357437,245.123840 218.190842,245.585495 219.019852,245.980270 
	C219.019852,245.980270 218.952972,245.975861 218.679398,246.709915 
	C219.461761,247.155289 220.244110,247.600677 221.021973,247.976837 
	C221.021973,247.976837 220.952820,247.971268 220.701004,248.771362 
M216.278351,263.445190 
	C216.716583,263.447784 217.154800,263.450378 217.593033,263.453003 
	C217.542725,263.163116 217.492416,262.873260 217.442108,262.583374 
	C216.968262,262.713196 216.494400,262.842987 215.946884,262.322327 
	C215.293091,261.625061 214.639282,260.927795 213.985489,260.230530 
	C213.682800,260.651855 213.380112,261.073212 213.077408,261.494537 
	C214.047195,262.002869 215.016983,262.511169 216.278351,263.445190 
M208.991318,249.717285 
	C209.047928,250.465240 209.104538,251.213196 209.161148,251.961151 
	C209.321564,251.946320 209.481995,251.931473 209.642410,251.916641 
	C209.642410,249.627930 209.642410,247.339203 209.642410,245.050476 
	C209.476868,245.055573 209.311340,245.060654 209.145798,245.065735 
	C209.082489,245.704559 209.019196,246.343384 208.368500,247.076233 
	C208.575378,247.719925 208.782257,248.363632 208.991318,249.717285 
M246.777786,198.777420 
	C246.626999,198.543533 246.419189,198.383881 246.077423,197.652634 
	C246.053070,197.437210 246.028702,197.221786 246.283432,196.361511 
	C247.214401,193.923950 248.145355,191.486389 249.591949,188.571426 
	C249.771759,187.419876 249.951553,186.268311 250.647842,184.555817 
	C250.781540,181.509445 253.750931,178.234573 250.635147,175.450058 
	C250.039978,175.494064 249.444794,175.538086 248.849625,175.582092 
	C249.199295,178.687332 249.548950,181.792557 249.267776,185.063110 
	C249.133286,186.345520 248.998795,187.627914 248.205490,189.062988 
	C246.772507,191.311111 245.339523,193.559219 243.463760,195.940872 
	C243.463760,195.940872 243.017426,196.064438 242.262802,196.102493 
	C240.664520,196.615158 239.066254,197.127838 237.467972,197.640518 
	C237.481995,198.010559 237.496017,198.380600 237.510056,198.750641 
	C239.310867,198.850098 241.111664,198.949539 243.466278,199.588959 
	C244.745850,199.688004 246.025436,199.787048 247.885941,200.225418 
	C251.968948,202.651901 256.051941,205.078384 260.134949,207.504868 
	C260.376465,207.068344 260.617950,206.631805 260.859436,206.195282 
	C256.700806,202.961304 252.693970,199.468292 246.973099,199.053711 
	C246.973099,199.053711 247.048019,199.072388 246.777786,198.777420 
M182.750671,163.938278 
	C184.484924,163.335114 186.219162,162.731949 188.716980,162.015869 
	C190.357117,161.928970 192.025681,161.998978 193.628983,161.708618 
	C195.074356,161.446838 196.448273,160.790451 198.342346,159.651779 
	C201.725433,159.651779 205.108536,159.651779 209.686905,159.651779 
	C206.036362,156.172958 203.494919,154.187057 199.860428,157.198776 
	C199.702255,157.329834 198.484497,156.182220 197.214142,155.266800 
	C196.461029,155.527252 195.707916,155.787704 195.025375,156.049255 
	C195.025375,156.049255 195.057068,155.986191 194.471909,155.376221 
	C191.986435,156.919266 189.500977,158.462296 186.308517,160.057861 
	C184.859497,161.362427 183.410477,162.666992 181.342529,164.262680 
	C180.226395,165.173080 179.110245,166.083481 177.296265,167.106964 
	C173.766800,170.760681 170.297668,174.431412 173.176529,179.359528 
	C174.684494,175.502365 176.345291,171.254242 178.732010,166.994995 
	C179.833664,166.009277 180.935333,165.023575 182.750671,163.938278 
M256.571838,236.538177 
	C257.166412,234.566132 257.760956,232.594070 258.419403,230.410156 
	C257.080994,230.410156 255.765335,230.410156 254.073135,230.410156 
	C254.796188,232.913025 255.382141,234.941315 255.303055,237.089905 
	C254.319901,238.515137 253.336761,239.940369 252.353622,241.365585 
	C252.957535,241.662750 253.561462,241.959900 254.165375,242.257065 
	C254.788483,240.516037 255.411591,238.775024 256.571838,236.538177 
M243.878738,209.308456 
	C242.845108,208.921921 241.811478,208.535370 240.777847,208.148834 
	C240.670273,208.607635 240.562698,209.066452 240.455109,209.525269 
	C241.636536,209.683716 242.817963,209.842163 244.096268,210.679153 
	C246.400787,212.508240 248.705292,214.337326 251.226196,216.523315 
	C251.408020,216.742752 251.631393,216.905014 252.001968,217.593765 
	C253.430237,220.883133 254.858490,224.172501 256.194153,227.248611 
	C257.593719,223.063171 256.408661,219.493500 252.086380,215.158920 
	C249.391129,213.439087 246.695877,211.719238 243.878738,209.308456 
M191.707870,144.089539 
	C191.126511,144.426468 190.545151,144.763397 189.182129,145.120758 
	C188.053513,145.403503 186.887268,145.584442 185.802307,145.985321 
	C178.064606,148.844376 170.081146,151.322113 165.070480,159.236282 
	C165.233002,159.533386 165.395538,159.830490 165.558060,160.127594 
	C165.705612,159.761139 165.853149,159.394669 166.594086,158.704498 
	C174.628281,151.928421 183.753799,147.682526 195.112503,146.898499 
	C196.070160,146.612335 197.027832,146.326157 198.915085,146.071472 
	C214.935776,145.133286 229.624588,148.503555 242.135925,160.162552 
	C243.903809,162.536530 245.671707,164.910492 247.439606,167.284470 
	C248.051865,166.807236 248.664139,166.330017 249.276398,165.852798 
	C247.431259,163.553741 245.586105,161.254684 243.179413,158.631241 
	C241.118713,156.731796 239.230194,154.591797 236.968567,152.973068 
	C224.930801,144.357208 211.252121,142.755630 196.553360,143.473145 
	C195.960190,144.130417 195.367035,144.787674 194.184967,145.539597 
	C193.597626,145.076355 193.010284,144.613113 191.707870,144.089539 
M196.672501,263.993774 
	C200.038651,262.266327 203.404816,260.538879 207.049530,258.668457 
	C196.966888,247.756302 184.347778,247.332199 171.454620,249.722900 
	C162.271652,251.425659 154.185577,255.673386 150.000763,265.718384 
	C149.888382,266.531311 149.965179,267.433136 149.631851,268.142212 
	C147.909042,271.807220 149.160141,277.490051 152.242508,279.572540 
	C158.510727,283.807465 167.822815,282.441345 172.570206,276.503296 
	C172.883942,276.110870 172.526718,275.182007 172.447998,273.996887 
	C171.335297,274.881500 170.732056,275.391815 170.097946,275.860321 
	C165.308853,279.398743 158.351028,280.254028 154.524323,277.697266 
	C149.547424,274.372009 151.120361,269.677368 152.427292,264.607788 
	C161.473907,252.751572 183.835068,253.881683 193.119049,260.830017 
	C194.018921,261.503479 194.351425,262.934998 194.278183,264.112610 
	C193.273453,265.460846 192.268723,266.809082 191.263992,268.157318 
	C191.709442,268.469971 192.154892,268.782654 192.600342,269.095306 
	C193.736389,267.495331 194.872437,265.895386 196.672501,263.993774 
M298.670593,357.437439 
	C290.647369,361.118256 282.375610,362.534851 272.647125,360.463470 
	C277.169373,357.320892 278.629333,353.353607 275.955505,349.893005 
	C274.493469,348.000793 270.300781,346.931519 267.744232,347.457672 
	C263.331451,348.365845 260.958527,352.133240 261.016754,356.791351 
	C261.084839,362.238953 264.079651,366.237579 269.058929,367.650177 
	C273.924225,369.030426 279.268707,370.049316 284.229523,369.539734 
	C308.217499,367.075714 326.841522,355.442108 339.830872,335.091400 
	C343.639374,329.124573 346.928558,322.826294 350.781616,316.112000 
	C354.074646,322.150391 359.146942,322.222168 364.359650,320.433441 
	C370.328400,318.385315 374.145569,313.741272 377.138245,308.371338 
	C381.314941,300.876862 382.007385,293.031281 378.829498,284.882263 
	C383.121674,282.862610 386.835754,281.115021 390.760986,279.268036 
	C390.021301,276.735168 389.352844,274.446350 388.484802,271.474060 
	C383.041077,274.078339 378.288422,276.352020 373.458435,278.662689 
	C368.726257,274.404633 362.908081,272.693726 356.563629,272.745880 
	C333.133789,272.938416 313.840790,282.134216 299.492950,300.557404 
	C295.675537,305.459076 293.251587,311.939301 291.805878,318.075958 
	C289.779114,326.679108 295.710022,332.946472 304.514801,333.172302 
	C313.503052,333.402832 320.890289,329.480804 327.927704,324.503845 
	C329.215302,323.593292 330.632233,322.865601 331.989502,322.053497 
	C332.274628,322.458588 332.559753,322.863678 332.844910,323.268768 
	C323.654144,336.447052 314.309509,349.476562 298.670593,357.437439 
M381.729614,258.079620 
	C381.703156,257.384705 381.850372,256.144562 381.625397,256.072906 
	C369.324493,252.154831 363.998505,235.899033 371.528778,225.199356 
	C373.418091,222.514923 375.653503,221.980957 377.428009,224.790146 
	C378.737213,226.862747 379.732452,229.619904 379.582275,231.990662 
	C379.433746,234.335999 377.673035,236.579208 376.420319,239.299866 
	C381.402405,238.256302 384.076538,234.657959 386.025726,230.790222 
	C390.265930,222.376236 382.994781,218.819504 378.166382,214.539352 
	C357.594086,239.284927 356.245361,250.903442 373.044403,263.090240 
	C375.655975,261.586426 378.373474,260.021637 381.729614,258.079620 
M242.926041,264.291138 
	C240.277634,264.862946 237.629227,265.434753 234.980820,266.006592 
	C239.571030,268.391724 242.088531,267.571381 242.926041,264.291138 
M161.842224,165.366501 
	C162.448318,164.084457 163.054413,162.802429 163.660507,161.520386 
	C163.016953,161.237427 162.373398,160.954468 161.729843,160.671509 
	C160.494583,163.459641 159.259323,166.247787 158.024063,169.035919 
	C158.473175,169.250977 158.922302,169.466019 159.371414,169.681076 
	C160.082870,168.452850 160.794327,167.224625 161.842224,165.366501 
M218.163528,198.163300 
	C218.320038,198.973358 218.476532,199.783432 218.633026,200.593491 
	C221.593109,199.793259 224.553207,198.993027 227.513290,198.192780 
	C227.440125,197.817627 227.366959,197.442490 227.293793,197.067337 
	C224.508652,197.388672 221.723511,197.710007 218.163528,198.163300 
M237.139191,201.950211 
	C236.034439,202.801086 234.929688,203.651962 233.824921,204.502838 
	C238.379349,203.486984 238.379349,203.486984 237.139191,201.950211 
M215.454910,170.066299 
	C214.644012,171.346130 213.833115,172.625961 213.022217,173.905792 
	C213.186310,174.000580 213.350403,174.095367 213.514481,174.190155 
	C214.823425,173.059662 216.132370,171.929153 217.441330,170.798660 
	C216.947495,170.411530 216.453659,170.024399 215.454910,170.066299 
M220.423218,175.688232 
	C221.178497,175.106583 221.933762,174.524933 222.689026,173.943283 
	C222.251877,173.607193 221.814728,173.271118 221.377579,172.935043 
	C220.847397,173.835434 220.317230,174.735825 220.423218,175.688232 
M215.242859,256.155762 
	C216.209793,255.639511 217.176712,255.123260 218.143646,254.607010 
	C217.821274,254.179138 217.498901,253.751266 217.176529,253.323395 
	C216.476746,254.100937 215.776962,254.878479 215.242859,256.155762 
M209.302032,256.424408 
	C209.464340,256.938934 209.626648,257.453491 209.788971,257.968018 
	C210.376831,257.579254 210.964691,257.190491 211.552551,256.801727 
	C210.997498,256.586121 210.442444,256.370544 209.302032,256.424408 
M220.806305,163.357468 
	C221.017502,164.094101 221.228699,164.830719 221.439880,165.567368 
	C221.836105,165.425217 222.232330,165.283066 222.628540,165.140900 
	C222.226212,164.535599 221.823883,163.930313 220.806305,163.357468 
M249.931549,169.292526 
	C249.840927,169.153976 249.778610,168.961990 249.650543,168.894119 
	C249.551834,168.841812 249.274918,168.904999 249.240768,168.985886 
	C248.911743,169.765045 248.617401,170.558868 248.313141,171.348480 
	C248.585358,171.463409 248.857574,171.578339 249.129791,171.693253 
	C249.415771,171.089874 249.701752,170.486496 249.931549,169.292526 
M255.438431,273.301453 
	C256.101044,273.344543 256.763672,273.387665 257.426239,273.430756 
	C257.430573,273.149872 257.434906,272.868958 257.439240,272.588074 
	C256.778076,272.620697 256.116913,272.653320 255.438431,273.301453 
M222.551605,264.708893 
	C221.898102,264.664307 221.244614,264.619751 220.591125,264.575195 
	C220.587311,264.851715 220.583511,265.128265 220.579697,265.404785 
	C221.234711,265.375336 221.889709,265.345856 222.551605,264.708893 
M246.613342,263.581268 
	C246.310043,264.255981 246.006744,264.930664 245.703445,265.605377 
	C246.157913,265.673187 246.612366,265.741028 247.066833,265.808868 
	C247.094620,265.139587 247.122391,264.470276 246.613342,263.581268 
M235.454361,174.337814 
	C235.473755,173.761642 235.510574,173.184372 235.474487,172.611694 
	C235.472000,172.572189 234.925537,172.566956 234.632034,172.545776 
	C234.729080,173.100220 234.826126,173.654648 235.454361,174.337814 
M204.367920,271.439697 
	C204.059097,271.829590 203.750275,272.219513 203.441467,272.609436 
	C203.819427,272.810547 204.197388,273.011627 204.575378,273.212708 
	C204.635437,272.754120 204.695496,272.295502 204.367920,271.439697 
M222.381149,168.199844 
	C222.738708,168.247849 223.096283,168.295853 223.453842,168.343857 
	C223.456329,168.087997 223.458832,167.832153 223.461319,167.576294 
	C223.102478,167.615936 222.743652,167.655579 222.381149,168.199844 
M219.003662,160.713608 
	C218.769028,160.787918 218.534378,160.862228 218.299744,160.936554 
	C218.564346,161.198090 218.828964,161.459641 219.093552,161.721176 
	C219.165985,161.486176 219.238403,161.251175 219.003662,160.713608 
M258.767761,227.815460 
	C258.589508,227.874756 258.411255,227.934052 258.232971,227.993332 
	C258.412109,228.050308 258.591278,228.107285 258.767761,227.815460 
M224.257172,170.808853 
	C224.373947,170.969086 224.490738,171.129333 224.607498,171.289566 
	C224.583481,171.066162 224.559464,170.842743 224.257172,170.808853 
M219.592392,254.515717 
	C219.592392,254.515717 219.476395,254.586411 219.592392,254.515717 
M179.482635,288.586945 
	C179.482635,288.586945 179.416122,288.474548 179.482635,288.586945 
M180.481735,285.604431 
	C180.481735,285.604431 180.403610,285.478729 180.481735,285.604431 
M354.473877,217.493088 
	C354.473877,217.493088 354.513123,217.491470 354.473877,217.493088 
z"/>
<path fill="#FF0707" opacity="1.000000" stroke="none"
			d="
M231.062225,272.482666 
	C233.695007,272.653717 236.371109,272.583740 238.951324,273.047394 
	C243.907013,273.937805 248.056442,276.077698 249.762634,282.041138 
	C250.042145,283.102570 250.139160,283.550446 250.236176,283.998322 
	C250.568665,294.773499 246.152206,303.579620 239.188583,311.478638 
	C226.099228,326.326294 213.150955,341.298370 200.156403,356.229462 
	C198.981216,357.579803 197.895996,359.008453 196.769028,360.400726 
	C197.026917,360.818054 197.284821,361.235413 197.542709,361.652740 
	C200.865952,360.151337 204.393127,358.982635 207.477737,357.091888 
	C222.220978,348.054901 234.576508,336.169830 246.216278,323.555756 
	C257.606964,311.211670 268.832855,298.703857 279.755310,285.946228 
	C283.133087,282.000946 286.572906,280.137665 291.668701,280.808746 
	C294.238556,281.147156 296.889709,280.867828 300.643188,280.867828 
	C278.145813,306.381622 256.323914,331.129395 234.212540,356.259094 
	C233.760513,356.769165 233.636398,356.927429 233.282852,357.285583 
	C232.884491,357.934662 232.754013,358.414001 232.623535,358.893341 
	C233.158630,358.673889 233.693710,358.454437 234.478317,358.200836 
	C234.982101,357.954803 235.236374,357.742889 235.490631,357.530945 
	C243.705780,350.329437 251.920944,343.127899 260.557770,335.556732 
	C261.262329,341.063873 261.718719,345.664642 256.723236,349.508698 
	C251.200806,353.758331 246.461441,359.014069 241.039261,363.410065 
	C238.130798,365.768097 234.681122,367.724823 231.163818,369.007660 
	C224.779449,371.336151 220.726074,368.246216 220.572311,361.521637 
	C220.554123,360.725983 220.569839,359.929565 220.569839,358.377258 
	C217.355316,360.421814 214.784821,362.470215 211.886154,363.806976 
	C207.096298,366.015930 202.240402,368.418671 197.147964,369.555206 
	C189.598480,371.240112 184.342239,365.605194 187.018173,358.417969 
	C189.170914,352.635895 192.516708,347.046112 196.378922,342.205414 
	C204.158417,332.454895 212.657623,323.279144 220.838943,313.848083 
	C221.882462,312.645142 222.800613,311.333496 223.776840,310.072205 
	C223.532883,309.705994 223.288925,309.339783 223.044968,308.973572 
	C221.587555,309.662079 220.109589,310.310577 218.676193,311.045898 
	C212.082214,314.428619 205.344101,317.478210 197.752701,315.063263 
	C195.554199,314.363953 193.756439,312.404877 191.467331,310.520355 
	C190.947342,309.345520 190.734985,308.673615 190.522614,308.001740 
	C189.910355,296.164368 197.139542,288.823303 205.413773,282.102173 
	C206.430847,281.276001 207.609680,280.648895 209.219513,279.549072 
	C210.154755,278.721832 210.584015,278.275146 211.013290,277.828430 
	C216.426453,276.238281 221.839615,274.648163 228.021103,272.989380 
	C229.547012,272.774689 230.304626,272.628693 231.062225,272.482666 
M227.232605,292.606903 
	C229.351273,288.978363 231.469955,285.349792 233.992813,281.029022 
	C221.471375,280.817017 212.499863,286.170380 204.679306,293.765137 
	C202.365173,296.012482 200.721634,299.065948 199.222687,301.982239 
	C198.591705,303.209900 198.524414,305.596161 199.302979,306.445526 
	C200.154846,307.374908 202.342667,307.559448 203.840683,307.338745 
	C213.486206,305.917511 220.898361,300.740387 227.232605,292.606903 
M225.444077,307.084808 
	C225.359543,307.304596 225.275009,307.524353 225.190460,307.744141 
	C225.409958,307.681610 225.629456,307.619110 225.444077,307.084808 
z"/>
<path fill="#FF0808" opacity="1.000000" stroke="none"
			d="
M298.996399,357.242981 
	C314.309509,349.476562 323.654144,336.447052 332.844910,323.268768 
	C332.559753,322.863678 332.274628,322.458588 331.989502,322.053497 
	C330.632233,322.865601 329.215302,323.593292 327.927704,324.503845 
	C320.890289,329.480804 313.503052,333.402832 304.514801,333.172302 
	C295.710022,332.946472 289.779114,326.679108 291.805878,318.075958 
	C293.251587,311.939301 295.675537,305.459076 299.492950,300.557404 
	C313.840790,282.134216 333.133789,272.938416 356.563629,272.745880 
	C362.908081,272.693726 368.726257,274.404633 373.458435,278.662689 
	C378.288422,276.352020 383.041077,274.078339 388.484802,271.474060 
	C389.352844,274.446350 390.021301,276.735168 390.760986,279.268036 
	C386.835754,281.115021 383.121674,282.862610 378.829498,284.882263 
	C382.007385,293.031281 381.314941,300.876862 377.138245,308.371338 
	C374.145569,313.741272 370.328400,318.385315 364.359650,320.433441 
	C359.146942,322.222168 354.074646,322.150391 350.781616,316.112000 
	C346.928558,322.826294 343.639374,329.124573 339.830872,335.091400 
	C326.841522,355.442108 308.217499,367.075714 284.229523,369.539734 
	C279.268707,370.049316 273.924225,369.030426 269.058929,367.650177 
	C264.079651,366.237579 261.084839,362.238953 261.016754,356.791351 
	C260.958527,352.133240 263.331451,348.365845 267.744232,347.457672 
	C270.300781,346.931519 274.493469,348.000793 275.955505,349.893005 
	C278.629333,353.353607 277.169373,357.320892 272.647125,360.463470 
	C282.375610,362.534851 290.647369,361.118256 298.996399,357.242981 
M347.905457,302.003204 
	C353.685303,295.367737 359.465149,288.732269 365.244965,282.096802 
	C364.255951,282.121704 361.779022,281.276611 359.252991,281.087372 
	C348.751434,280.300568 338.704407,282.176208 329.198120,286.772095 
	C317.205170,292.570129 307.222382,300.600403 301.210236,312.767151 
	C299.534058,316.159180 297.564575,320.674591 300.992493,323.362396 
	C303.101257,325.015839 307.645264,324.808228 310.621429,323.893188 
	C322.890503,320.120941 331.242004,311.376953 337.437012,300.556854 
	C340.119476,295.871582 341.890533,290.664490 344.199280,285.413055 
	C346.504303,285.933228 348.793121,286.449738 351.309906,287.017700 
	C349.480438,292.291809 347.903656,296.837402 345.873383,301.772949 
	C345.712219,302.112671 345.551056,302.452423 345.389862,302.792145 
	C346.034943,302.640656 346.680023,302.489197 347.905457,302.003204 
M366.571472,306.957092 
	C367.070251,306.135620 367.569031,305.314117 368.140900,304.372253 
	C362.202026,304.769318 358.626221,308.139740 358.876343,314.150482 
	C361.648987,311.577271 363.854767,309.530121 366.571472,306.957092 
M333.500000,321.000000 
	C333.633331,320.799988 333.766663,320.600006 333.899994,320.399963 
	C333.600006,320.433319 333.299988,320.466644 333.500000,321.000000 
z"/>
<path fill="#0C0CFF" opacity="1.000000" stroke="none"
			d="
M314.021393,259.048645 
	C321.479889,256.041962 324.924286,250.730576 324.003815,242.535782 
	C323.597168,238.915573 323.956573,235.211624 323.929565,231.545975 
	C323.881226,224.982895 322.520874,223.584412 315.646027,223.725311 
	C319.577972,220.021011 323.124969,216.679382 326.128418,213.849823 
	C328.098419,216.714767 330.143280,219.688644 332.499512,223.115295 
	C337.866638,218.921768 343.344238,214.641937 347.642120,211.283859 
	C347.447479,211.900650 345.810516,214.514145 346.491730,215.462631 
	C347.925446,217.458740 350.574951,218.581589 353.072021,219.676132 
	C354.064545,220.554977 348.026184,222.261505 353.957275,223.423157 
	C349.464844,227.543793 350.303101,231.990738 352.687469,236.848221 
	C355.453278,242.482742 354.162170,248.295731 349.042053,252.587540 
	C345.503296,255.553802 341.312805,257.732819 337.483276,260.365021 
	C334.501434,262.414642 331.627045,264.620605 328.663025,266.787689 
	C331.098877,260.515594 321.995514,254.431381 314.318481,258.718475 
	C314.034668,258.858582 314.021393,259.048645 314.021393,259.048645 
M349.510254,223.955948 
	C345.424927,223.706909 341.339569,223.457870 337.254242,223.208817 
	C337.070312,222.578003 336.886383,221.947174 336.702484,221.316345 
	C334.868530,223.557816 331.673126,225.675034 331.455109,228.063980 
	C330.793488,235.313065 330.845764,242.712387 331.591217,249.953186 
	C331.815887,252.135284 334.871674,254.817612 337.239716,255.795197 
	C340.501831,257.141846 343.871429,255.173935 344.768280,251.872223 
	C345.621765,248.730133 345.692902,245.007904 344.881073,241.856827 
	C343.135468,235.081345 343.803528,229.374725 349.510254,223.955948 
z"/>
<path fill="#F6F6FF" opacity="1.000000" stroke="none"
			d="
M211.948837,242.147919 
	C209.241577,243.948624 207.998260,243.077866 208.233994,239.505585 
	C208.673737,238.748734 208.858902,238.458969 209.418732,237.932678 
	C210.146072,231.790146 211.433609,225.736710 210.533340,220.028320 
	C209.899048,216.006454 211.148865,215.107407 214.446350,214.193710 
	C226.623764,214.195221 233.185760,220.871719 232.933731,232.461243 
	C232.793198,238.924316 230.534821,244.432617 225.708374,249.137146 
	C224.251297,249.148514 223.106873,249.058838 221.962448,248.969162 
	C221.962448,248.969162 222.028366,248.978638 222.027100,248.696640 
	C221.668167,248.266846 221.310486,248.119064 220.952820,247.971268 
	C220.952820,247.971268 221.021973,247.976837 221.046158,247.668594 
	C220.364548,246.898849 219.658768,246.437363 218.952972,245.975861 
	C218.952972,245.975861 219.019852,245.980270 219.047913,245.675262 
	C218.369659,244.902878 217.663345,244.435501 216.957016,243.968124 
	C216.957016,243.968124 217.026352,243.966309 216.931366,243.614761 
	C216.207184,243.179031 215.578003,243.094849 214.948807,243.010666 
	C214.948807,243.010666 215.001205,242.995316 215.272125,242.703247 
	C214.344971,242.323410 213.146896,242.235657 211.948837,242.147919 
z"/>
<path fill="#F9F9FF" opacity="1.000000" stroke="none"
			d="
M188.994080,186.660049 
	C190.177032,185.771362 191.359985,184.882660 193.275818,183.907349 
	C199.057480,186.204422 204.106277,188.588089 209.051331,191.427155 
	C208.934082,195.022003 209.106995,198.175949 208.864120,201.297546 
	C208.484055,206.181885 207.794907,211.041763 207.344589,215.921967 
	C207.315247,216.239914 208.204498,216.642624 208.359894,217.012970 
	C207.440247,217.031723 206.827133,217.043427 206.119614,216.603088 
	C205.038345,216.145264 204.048798,216.088943 203.065048,216.141312 
	C190.076218,216.833008 183.731949,209.800949 186.162384,197.086838 
	C186.645889,194.557510 188.252869,192.260391 189.104752,189.774963 
	C189.419342,188.857132 189.050964,187.705200 188.994080,186.660049 
z"/>
<path fill="#0C0CFF" opacity="1.000000" stroke="none"
			d="
M381.410309,258.268250 
	C378.373474,260.021637 375.655975,261.586426 373.044403,263.090240 
	C356.245361,250.903442 357.594086,239.284927 378.166382,214.539352 
	C382.994781,218.819504 390.265930,222.376236 386.025726,230.790222 
	C384.076538,234.657959 381.402405,238.256302 376.420319,239.299866 
	C377.673035,236.579208 379.433746,234.335999 379.582275,231.990662 
	C379.732452,229.619904 378.737213,226.862747 377.428009,224.790146 
	C375.653503,221.980957 373.418091,222.514923 371.528778,225.199356 
	C363.998505,235.899033 369.324493,252.154831 381.625397,256.072906 
	C381.850372,256.144562 381.703156,257.384705 381.410309,258.268250 
z"/>
<path fill="#0808FF" opacity="1.000000" stroke="none"
			d="
M226.021027,249.036118 
	C230.534821,244.432617 232.793198,238.924316 232.933731,232.461243 
	C233.185760,220.871719 226.623764,214.195221 214.438828,213.913025 
	C214.012268,213.416306 214.010773,213.229111 214.329498,212.852417 
	C216.593857,212.129654 218.538010,211.596390 220.854156,211.192734 
	C222.792725,211.229385 224.359283,211.136414 225.925842,211.043427 
	C233.954269,210.646164 239.788589,214.147110 242.825134,221.481293 
	C245.855087,228.799545 244.772888,235.754242 239.243027,241.705032 
	C238.010406,243.031509 236.545914,244.142532 234.819351,245.680817 
	C234.127960,246.096359 233.938370,246.304779 233.881714,246.634125 
	C231.881378,247.747162 229.881027,248.860184 227.304108,249.927094 
	C226.492050,249.599350 226.256531,249.317734 226.021027,249.036118 
z"/>
<path fill="#0808FF" opacity="1.000000" stroke="none"
			d="
M313.873108,258.651917 
	C314.021393,259.048645 314.034668,258.858582 314.040924,258.812897 
	C310.901489,261.441681 307.755798,264.116150 305.522583,266.014862 
	C304.738617,264.091095 303.945770,261.972900 303.017517,259.915833 
	C302.072418,257.821381 300.993958,255.787079 299.888702,253.116211 
	C299.513336,252.353943 299.223114,252.201935 298.815582,251.635651 
	C299.045319,244.787445 299.539978,238.357193 299.699463,231.918625 
	C299.872498,224.931534 298.102722,222.914536 290.901276,221.026184 
	C293.815552,218.443832 296.729828,215.861481 298.703796,214.112320 
	C298.948700,214.733612 299.065765,216.359787 299.890381,216.894241 
	C303.614410,219.307755 307.538635,221.412262 312.058472,224.012207 
	C305.560028,225.925583 307.038818,231.157425 306.976532,235.777939 
	C306.913910,240.420364 306.851868,245.068863 307.017395,249.706573 
	C307.173553,254.080597 309.416382,257.031799 313.873108,258.651917 
z"/>
<path fill="#2020FF" opacity="1.000000" stroke="none"
			d="
M182.948410,240.758957 
	C175.706573,240.535904 168.465012,240.303741 161.222702,240.097473 
	C159.773972,240.056229 158.046021,239.599060 156.915543,240.206284 
	C147.102722,245.477234 134.531418,256.422363 136.996170,272.357056 
	C137.511871,275.691010 139.304779,278.827423 140.185242,282.483276 
	C139.520126,282.954712 139.178909,282.997711 138.837692,283.040741 
	C132.271179,275.047424 131.430588,263.301483 138.155518,253.959869 
	C142.586838,247.804276 148.729980,242.881012 154.305954,237.202988 
	C149.493774,233.566360 145.128632,227.971359 145.274536,220.603226 
	C145.368942,215.836594 147.361633,211.107574 149.067566,206.176147 
	C149.894180,206.327240 150.156921,206.663879 150.279449,207.380173 
	C145.812836,217.483154 147.677551,228.642685 154.850281,234.239105 
	C156.184265,235.279953 158.484802,235.913651 160.108658,235.587418 
	C164.151962,234.775101 168.062347,233.301178 172.440247,232.150604 
	C174.238724,232.068054 175.623032,231.927795 177.471191,231.846588 
	C184.917389,232.103226 191.899750,232.300842 198.910095,233.015778 
	C198.941956,234.223999 198.945862,234.914886 198.949768,235.605789 
	C198.067505,235.731277 197.185226,235.856750 195.598801,235.722961 
	C194.588165,235.312088 194.281693,235.160477 193.583618,234.881104 
	C182.821136,233.473511 172.579117,233.312408 162.847488,237.582367 
	C162.866852,238.136230 162.886200,238.690079 162.905548,239.243942 
	C169.569305,239.243942 176.233063,239.243942 182.900482,239.623016 
	C182.918884,240.254379 182.933655,240.506668 182.948410,240.758957 
z"/>
<path fill="#F6F6FF" opacity="1.000000" stroke="none"
			d="
M290.588104,221.038269 
	C298.102722,222.914536 299.872498,224.931534 299.699463,231.918625 
	C299.539978,238.357193 299.045319,244.787445 298.848083,251.610809 
	C298.997894,252.000244 299.059814,251.946701 298.698730,251.904297 
	C298.207520,252.312897 298.077423,252.763870 297.947327,253.214844 
	C297.540009,253.788986 297.132690,254.363129 296.076965,254.988953 
	C290.511169,255.773361 286.767578,253.078140 286.424744,246.744919 
	C286.095245,240.657867 287.471222,234.483337 288.021606,228.340424 
	C288.160980,226.784927 288.010254,225.203415 287.992798,223.633865 
	C288.753510,222.772690 289.514221,221.911514 290.588104,221.038269 
z"/>
<path fill="#0C0CFF" opacity="1.000000" stroke="none"
			d="
M150.023727,264.935699 
	C154.185577,255.673386 162.271652,251.425659 171.454620,249.722900 
	C184.347778,247.332199 196.966888,247.756302 207.049530,258.668457 
	C203.404816,260.538879 200.038651,262.266327 196.069168,264.097229 
	C195.292999,264.138672 195.120148,264.076660 194.947296,264.014648 
	C194.351425,262.934998 194.018921,261.503479 193.119049,260.830017 
	C183.835068,253.881683 161.473907,252.751572 151.884018,264.858765 
	C150.901733,265.051697 150.462738,264.993713 150.023727,264.935699 
z"/>
<path fill="#0C0CFF" opacity="1.000000" stroke="none"
			d="
M188.684570,186.821899 
	C189.050964,187.705200 189.419342,188.857132 189.104752,189.774963 
	C188.252869,192.260391 186.645889,194.557510 186.162384,197.086838 
	C183.731949,209.800949 190.076218,216.833008 203.065048,216.141312 
	C204.048798,216.088943 205.038345,216.145264 205.745743,216.623718 
	C202.707870,218.226456 200.026443,219.628235 197.176651,220.436050 
	C188.397247,222.924713 180.208572,220.222900 177.576721,213.223785 
	C176.199432,209.561081 176.824234,205.145538 176.587723,201.058990 
	C176.630615,201.047958 176.662918,201.020538 176.662918,201.020538 
	C180.566971,196.341614 184.471024,191.662689 188.684570,186.821899 
z"/>
<path fill="#0C0CFF" opacity="1.000000" stroke="none"
			d="
M287.684204,223.795258 
	C288.010254,225.203415 288.160980,226.784927 288.021606,228.340424 
	C287.471222,234.483337 286.095245,240.657867 286.424744,246.744919 
	C286.767578,253.078140 290.511169,255.773361 295.781830,255.001877 
	C292.320740,258.242249 288.506439,261.521362 284.466522,265.066956 
	C284.240906,265.333374 284.274841,265.394592 284.274841,265.394592 
	C283.507477,263.347992 283.110352,261.047638 281.910553,259.297455 
	C275.748688,250.308853 276.262665,238.528915 283.548492,228.558456 
	C284.723267,226.950760 286.094910,225.486938 287.684204,223.795258 
z"/>
<path fill="#0C0CFF" opacity="1.000000" stroke="none"
			d="
M209.155060,190.971771 
	C204.106277,188.588089 199.057480,186.204422 193.620514,183.866852 
	C197.911072,181.603882 202.589828,179.294769 207.642853,177.083145 
	C208.017105,177.180634 208.158264,177.298813 208.158264,177.298813 
	C214.491943,183.582855 221.903885,184.891983 230.888489,182.031952 
	C231.793991,182.325455 232.020462,182.665237 232.246918,183.005035 
	C226.302032,189.149643 218.925949,191.107132 210.079041,190.670044 
	C209.521805,190.948334 209.155060,190.971771 209.155060,190.971771 
z"/>
<path fill="#2020FF" opacity="1.000000" stroke="none"
			d="
M196.970505,143.934860 
	C211.252121,142.755630 224.930801,144.357208 236.968567,152.973068 
	C239.230194,154.591797 241.118713,156.731796 243.242050,158.844849 
	C242.866699,159.168106 242.428696,159.277786 241.990707,159.387466 
	C229.624588,148.503555 214.935776,145.133286 198.362213,145.763351 
	C197.529739,144.948441 197.250122,144.441650 196.970505,143.934860 
z"/>
<path fill="#2020FF" opacity="1.000000" stroke="none"
			d="
M262.830963,250.652573 
	C268.143402,241.060318 271.315460,231.081802 267.225800,220.221008 
	C265.758820,216.325241 263.448120,212.747192 261.383911,208.756287 
	C270.581696,212.572723 277.638367,234.752869 264.094269,251.706146 
	C263.296844,251.370193 263.063904,251.011383 262.830963,250.652573 
z"/>
<path fill="#3636FF" opacity="1.000000" stroke="none"
			d="
M176.296783,200.806427 
	C176.662918,201.020538 176.630615,201.047958 176.305832,200.599930 
	C172.290390,201.191330 168.595276,202.252563 166.365234,197.991379 
	C168.709030,198.458557 170.654114,199.037003 173.428223,199.861969 
	C171.002884,194.140961 168.040680,193.584091 164.654434,197.357910 
	C161.959976,198.209259 159.567245,198.765656 157.320160,199.092255 
	C157.274368,198.574738 157.082932,198.287003 156.891495,197.999268 
	C158.476501,196.982849 160.061523,195.966446 161.047821,195.333984 
	C159.748276,190.446823 158.525131,185.846954 157.796692,181.310135 
	C158.447388,181.476074 158.603363,181.578949 158.759323,181.681824 
	C160.193283,185.808670 161.627243,189.935501 163.000900,193.888809 
	C172.175095,192.262772 174.295685,193.493790 176.296783,200.806427 
z"/>
<path fill="#FAF9FE" opacity="1.000000" stroke="none"
			d="
M150.012238,265.327026 
	C150.462738,264.993713 150.901733,265.051697 151.672699,265.127777 
	C151.120361,269.677368 149.547424,274.372009 154.524323,277.697266 
	C158.351028,280.254028 165.308853,279.398743 170.097946,275.860321 
	C170.732056,275.391815 171.335297,274.881500 172.447998,273.996887 
	C172.526718,275.182007 172.883942,276.110870 172.570206,276.503296 
	C167.822815,282.441345 158.510727,283.807465 152.242508,279.572540 
	C149.160141,277.490051 147.909042,271.807220 149.631851,268.142212 
	C149.965179,267.433136 149.888382,266.531311 150.012238,265.327026 
z"/>
<path fill="#2F2DFE" opacity="1.000000" stroke="none"
			d="
M190.133453,307.946899 
	C190.734985,308.673615 190.947342,309.345520 191.210815,310.279907 
	C181.255371,308.557892 176.535034,303.714447 174.556091,293.803040 
	C174.343689,292.739258 172.791794,291.942932 171.433716,290.791565 
	C171.006165,290.560577 171.015015,290.126587 171.015015,290.126587 
	C172.448883,289.118622 173.882751,288.110687 175.744812,287.339508 
	C176.494751,288.046326 176.816528,288.516388 177.138290,288.986450 
	C175.808014,298.565491 179.936996,304.757843 190.133453,307.946899 
z"/>
<path fill="#3636FF" opacity="1.000000" stroke="none"
			d="
M194.308670,146.750443 
	C183.753799,147.682526 174.628281,151.928421 166.087524,158.754913 
	C165.580963,158.805344 165.117645,158.699585 165.117645,158.699585 
	C170.081146,151.322113 178.064606,148.844376 185.802307,145.985321 
	C186.887268,145.584442 188.053513,145.403503 189.725403,145.392334 
	C190.986771,145.159241 191.704849,144.654556 192.422943,144.149872 
	C193.010284,144.613113 193.597626,145.076355 194.319870,145.672256 
	C194.353409,146.111954 194.304703,146.427124 194.308670,146.750443 
z"/>
<path fill="#2F2DFE" opacity="1.000000" stroke="none"
			d="
M209.051331,191.427155 
	C209.155060,190.971771 209.521805,190.948334 209.705490,190.952789 
	C209.951996,194.000793 210.014816,197.044357 210.074158,200.869812 
	C210.450745,202.077103 210.830780,202.502487 211.210815,202.927872 
	C210.837021,203.691284 210.463211,204.454697 210.052200,205.923981 
	C210.030487,207.130264 210.045990,207.630676 210.042953,208.549103 
	C209.512909,212.124542 210.489182,213.827042 214.009262,213.041916 
	C214.010773,213.229111 214.012268,213.416306 214.021286,213.884171 
	C211.148865,215.107407 209.899048,216.006454 210.533340,220.028320 
	C211.433609,225.736710 210.146072,231.790146 209.396942,237.605286 
	C208.977921,237.296875 208.955353,237.079315 208.936523,236.412903 
	C208.539261,231.969574 208.138260,227.975098 207.879517,223.609299 
	C208.236694,221.160599 208.451569,219.083252 208.666443,217.005890 
	C208.204498,216.642624 207.315247,216.239914 207.344589,215.921967 
	C207.794907,211.041763 208.484055,206.181885 208.864120,201.297546 
	C209.106995,198.175949 208.934082,195.022003 209.051331,191.427155 
z"/>
<path fill="#2F2DFE" opacity="1.000000" stroke="none"
			d="
M262.551453,250.857437 
	C263.063904,251.011383 263.296844,251.370193 263.811646,251.887711 
	C259.011322,256.382721 256.574127,261.641602 258.260742,268.413208 
	C258.426636,269.079254 258.065613,269.876556 257.904633,270.894501 
	C256.856689,267.388733 255.929245,264.286133 254.411346,260.990509 
	C253.675125,260.647308 253.529373,260.497162 253.383621,260.346985 
	C253.508804,258.845398 253.633987,257.343781 253.762650,255.501831 
	C253.766129,255.161484 254.001724,254.853882 254.001724,254.853882 
	C254.803513,255.610870 255.605316,256.367859 256.848236,257.541321 
	C258.666443,255.369339 260.469177,253.215820 262.551453,250.857437 
z"/>
<path fill="#EDEDFF" opacity="1.000000" stroke="none"
			d="
M177.389832,288.712219 
	C176.816528,288.516388 176.494751,288.046326 176.083435,287.301880 
	C175.647934,280.934845 178.736099,276.830414 183.941010,274.392151 
	C185.090240,273.853790 188.345123,274.925873 188.440506,275.577087 
	C188.699951,277.348511 187.786453,279.291687 187.337830,281.166809 
	C186.772720,280.986877 186.207611,280.806946 185.642502,280.626984 
	C186.080902,279.552979 186.519302,278.478973 186.947800,277.429169 
	C181.654602,277.019989 178.649887,280.540009 177.389832,288.712219 
z"/>
<path fill="#4141FF" opacity="1.000000" stroke="none"
			d="
M210.061493,208.131088 
	C210.045990,207.630676 210.030487,207.130264 210.034561,206.254807 
	C214.892227,206.135162 219.730408,206.388977 224.568344,206.647095 
	C225.783249,206.711914 226.997421,206.790512 228.523453,207.182693 
	C228.834976,207.502609 228.696365,207.883148 228.696381,207.883148 
	C227.475693,208.775909 226.255020,209.668655 225.480103,210.802429 
	C224.359283,211.136414 222.792725,211.229385 221.128799,210.752625 
	C217.374786,209.498947 213.718140,208.815018 210.061493,208.131088 
z"/>
<path fill="#3636FF" opacity="1.000000" stroke="none"
			d="
M138.960999,283.355713 
	C139.178909,282.997711 139.520126,282.954712 140.369354,282.821838 
	C145.840195,288.387299 152.426941,290.647217 159.544067,291.875671 
	C151.414062,292.458984 144.637726,289.629822 138.960999,283.355713 
z"/>
<path fill="#4141FF" opacity="1.000000" stroke="none"
			d="
M237.215729,247.102631 
	C241.489578,248.188919 245.763443,249.275192 250.053085,250.776230 
	C250.068878,251.190979 250.124405,251.481628 250.124405,251.481628 
	C246.056213,251.096039 241.988007,250.710464 237.526489,249.761322 
	C237.160690,248.499374 237.188217,247.801010 237.215729,247.102631 
z"/>
<path fill="#2020FF" opacity="1.000000" stroke="none"
			d="
M187.015503,160.005341 
	C189.500977,158.462296 191.986435,156.919266 194.876770,156.040817 
	C196.138977,157.906311 196.996338,159.107208 197.853699,160.308105 
	C196.448273,160.790451 195.074356,161.446838 193.628983,161.708618 
	C192.025681,161.998978 190.357117,161.928970 188.231705,161.785522 
	C187.502792,161.038559 187.259140,160.521942 187.015503,160.005341 
z"/>
<path fill="#F9F9FF" opacity="1.000000" stroke="none"
			d="
M198.098022,159.979950 
	C196.996338,159.107208 196.138977,157.906311 195.169342,156.345795 
	C195.057068,155.986191 195.025375,156.049255 195.346344,156.041306 
	C196.364975,155.898987 197.062653,155.764618 197.760315,155.630249 
	C198.484497,156.182220 199.702255,157.329834 199.860428,157.198776 
	C203.494919,154.187057 206.036362,156.172958 209.686905,159.651779 
	C205.108536,159.651779 201.725433,159.651779 198.098022,159.979950 
z"/>
<path fill="#F9F9FF" opacity="1.000000" stroke="none"
			d="
M156.547821,198.036835 
	C157.082932,198.287003 157.274368,198.574738 157.210358,199.467499 
	C154.776505,202.381851 152.598099,204.691193 150.419678,207.000534 
	C150.156921,206.663879 149.894180,206.327240 149.313507,205.911835 
	C151.398453,203.246841 153.801315,200.660629 156.547821,198.036835 
z"/>
<path fill="#2F2DFE" opacity="1.000000" stroke="none"
			d="
M246.907272,199.012283 
	C252.693970,199.468292 256.700806,202.961304 260.859436,206.195282 
	C260.617950,206.631805 260.376465,207.068344 260.134949,207.504868 
	C256.051941,205.078384 251.968948,202.651901 247.587494,199.795685 
	C247.161804,199.248077 247.034546,199.130188 246.907272,199.012283 
z"/>
<path fill="#F9F9FF" opacity="1.000000" stroke="none"
			d="
M178.006104,167.006104 
	C176.345291,171.254242 174.684494,175.502365 173.176529,179.359528 
	C170.297668,174.431412 173.766800,170.760681 177.648132,167.053482 
	C178.000000,167.000000 178.006104,167.006104 178.006104,167.006104 
z"/>
<path fill="#F9F9FF" opacity="1.000000" stroke="none"
			d="
M242.063324,159.775009 
	C242.428696,159.277786 242.866699,159.168106 243.522827,159.007034 
	C245.586105,161.254684 247.431259,163.553741 249.276398,165.852798 
	C248.664139,166.330017 248.051865,166.807236 247.439606,167.284470 
	C245.671707,164.910492 243.903809,162.536530 242.063324,159.775009 
z"/>
<path fill="#F6F6FF" opacity="1.000000" stroke="none"
			d="
M249.898621,184.897781 
	C249.548950,181.792557 249.199295,178.687332 248.849625,175.582092 
	C249.444794,175.538086 250.039978,175.494064 250.635147,175.450058 
	C253.750931,178.234573 250.781540,181.509445 250.330399,184.782623 
	C250.012955,185.009415 249.898621,184.897781 249.898621,184.897781 
z"/>
<path fill="#F8F8FF" opacity="1.000000" stroke="none"
			d="
M252.204590,215.849442 
	C256.408661,219.493500 257.593719,223.063171 256.194153,227.248611 
	C254.858490,224.172501 253.430237,220.883133 251.963882,217.084137 
	C251.925797,216.574509 251.862717,216.142395 251.945435,216.065948 
	C252.028168,215.989487 252.204590,215.849442 252.204590,215.849442 
z"/>
<path fill="#4141FF" opacity="1.000000" stroke="none"
			d="
M193.975220,235.008850 
	C194.281693,235.160477 194.588165,235.312088 195.265884,235.818665 
	C191.660126,237.694656 187.683121,239.215637 183.327271,240.747787 
	C182.933655,240.506668 182.918884,240.254379 183.213181,239.495544 
	C187.006561,237.662277 190.490891,236.335571 193.975220,235.008850 
z"/>
<path fill="#F4F0FB" opacity="1.000000" stroke="none"
			d="
M243.239746,264.438507 
	C242.088531,267.571381 239.571030,268.391724 234.980820,266.006592 
	C237.629227,265.434753 240.277634,264.862946 243.239746,264.438507 
z"/>
<path fill="#F9F9FF" opacity="1.000000" stroke="none"
			d="
M161.674011,165.681458 
	C160.794327,167.224625 160.082870,168.452850 159.371414,169.681076 
	C158.922302,169.466019 158.473175,169.250977 158.024063,169.035919 
	C159.259323,166.247787 160.494583,163.459641 161.729843,160.671509 
	C162.373398,160.954468 163.016953,161.237427 163.660507,161.520386 
	C163.054413,162.802429 162.448318,164.084457 161.674011,165.681458 
z"/>
<path fill="#F4F0FB" opacity="1.000000" stroke="none"
			d="
M231.073990,272.123230 
	C230.304626,272.628693 229.547012,272.774689 228.405792,272.875488 
	C228.537476,270.494324 229.052795,268.158325 229.788544,265.410156 
	C230.008972,264.997955 230.164581,264.852570 230.164581,264.852570 
	C231.268646,265.270355 232.372726,265.688171 233.278687,266.030975 
	C232.399048,268.330536 231.742401,270.047150 231.073990,272.123230 
z"/>
<path fill="#F6F6FF" opacity="1.000000" stroke="none"
			d="
M218.550949,198.097321 
	C221.723511,197.710007 224.508652,197.388672 227.293793,197.067337 
	C227.366959,197.442490 227.440125,197.817627 227.513290,198.192780 
	C224.553207,198.993027 221.593109,199.793259 218.633026,200.593491 
	C218.476532,199.783432 218.320038,198.973358 218.550949,198.097321 
z"/>
<path fill="#4141FF" opacity="1.000000" stroke="none"
			d="
M208.932770,236.861771 
	C208.955353,237.079315 208.977921,237.296875 209.022278,237.841827 
	C208.858902,238.458969 208.673737,238.748734 208.238159,239.134064 
	C205.161682,238.140427 202.335617,237.051224 199.229645,235.783905 
	C198.945862,234.914886 198.941956,234.223999 199.026276,232.818893 
	C199.114502,232.104691 199.528152,231.909149 199.528152,231.909149 
	C199.528152,231.909149 199.984207,231.946167 200.276489,232.242691 
	C201.821091,236.951538 205.983917,235.732162 208.932770,236.861771 
z"/>
<path fill="#F8F8FF" opacity="1.000000" stroke="none"
			d="
M251.009796,216.166412 
	C248.705292,214.337326 246.400787,212.508240 244.048126,210.339569 
	C244.000000,210.000000 244.000610,209.999390 244.000610,209.999390 
	C246.695877,211.719238 249.391129,213.439087 252.145477,215.504181 
	C252.204590,215.849442 252.028168,215.989487 251.731857,216.044006 
	C251.435547,216.098511 251.009796,216.166412 251.009796,216.166412 
z"/>
<path fill="#F8F8FF" opacity="1.000000" stroke="none"
			d="
M255.968079,236.969620 
	C255.382141,234.941315 254.796188,232.913025 254.073135,230.410156 
	C255.765335,230.410156 257.080994,230.410156 258.419403,230.410156 
	C257.760956,232.594070 257.166412,234.566132 256.286682,236.769897 
	C256.001556,237.001633 255.968079,236.969620 255.968079,236.969620 
z"/>
<path fill="#F6F6FF" opacity="1.000000" stroke="none"
			d="
M243.906555,195.807343 
	C245.339523,193.559219 246.772507,191.311111 248.588745,189.021423 
	C248.972000,188.979843 249.076324,189.048828 249.076324,189.048828 
	C248.145355,191.486389 247.214401,193.923950 245.866364,196.565735 
	C244.935043,196.449097 244.420792,196.128220 243.906555,195.807343 
z"/>
<path fill="#3636FF" opacity="1.000000" stroke="none"
			d="
M169.003616,291.906769 
	C166.167526,292.265015 163.331451,292.623260 160.495361,292.981506 
	C160.437866,292.453918 160.380356,291.926331 160.322861,291.398743 
	C163.272186,291.067749 166.221512,290.736755 169.630417,290.628418 
	C170.167221,291.009857 170.244431,291.168610 170.321655,291.327332 
	C170.321655,291.327332 170.228607,291.311279 169.993896,291.260437 
	C169.507339,291.441986 169.255478,291.674377 169.003616,291.906769 
z"/>
<path fill="#3636FF" opacity="1.000000" stroke="none"
			d="
M225.708374,249.137146 
	C226.256531,249.317734 226.492050,249.599350 226.973297,250.015961 
	C226.552841,251.105835 225.886658,252.060730 225.145233,253.473282 
	C225.070007,253.930939 224.804504,254.175400 224.804504,254.175400 
	C223.378143,253.666412 221.951782,253.157425 220.711105,252.714706 
	C220.907455,251.725784 221.128403,250.612991 221.655899,249.234680 
	C223.106873,249.058838 224.251297,249.148514 225.708374,249.137146 
z"/>
<path fill="#F9F9FF" opacity="1.000000" stroke="none"
			d="
M158.832306,181.188934 
	C158.603363,181.578949 158.447388,181.476074 158.144745,181.134369 
	C157.172409,179.447891 157.252655,176.982803 158.905289,171.714813 
	C158.905289,174.708572 158.905289,177.702316 158.832306,181.188934 
z"/>
<path fill="#F9F9FF" opacity="1.000000" stroke="none"
			d="
M232.567993,182.938965 
	C232.020462,182.665237 231.793991,182.325455 231.280685,181.861115 
	C232.238037,180.192200 233.482254,178.647842 234.726471,177.103470 
	C235.227127,177.462814 235.727783,177.822144 236.228439,178.181488 
	C235.115311,179.745285 234.002182,181.309082 232.567993,182.938965 
z"/>
<path fill="#F8F8FF" opacity="1.000000" stroke="none"
			d="
M236.916763,246.976471 
	C237.188217,247.801010 237.160690,248.499374 237.171631,249.545670 
	C236.470642,250.469360 235.731186,251.045135 234.433975,252.055206 
	C234.234055,250.180161 234.088608,248.816010 233.912445,247.042999 
	C233.938370,246.304779 234.127960,246.096359 234.670959,245.984375 
	C235.466873,246.256683 236.042328,246.553497 236.916763,246.976471 
z"/>
<path fill="#F9F9FF" opacity="1.000000" stroke="none"
			d="
M186.662018,160.031601 
	C187.259140,160.521942 187.502792,161.038559 187.849915,161.841980 
	C186.219162,162.731949 184.484924,163.335114 182.375626,163.970337 
	C182.000580,164.002380 181.961472,163.971573 181.961472,163.971573 
	C183.410477,162.666992 184.859497,161.362427 186.662018,160.031601 
z"/>
<path fill="#F6F6FF" opacity="1.000000" stroke="none"
			d="
M242.912476,199.048996 
	C241.111664,198.949539 239.310867,198.850098 237.510056,198.750641 
	C237.496017,198.380600 237.481995,198.010559 237.467972,197.640518 
	C239.066254,197.127838 240.664520,196.615158 242.637146,196.455826 
	C242.978485,197.555771 242.945480,198.302383 242.912476,199.048996 
z"/>
<path fill="#F6F6FF" opacity="1.000000" stroke="none"
			d="
M211.449615,202.842239 
	C210.830780,202.502487 210.450745,202.077103 210.142258,201.319962 
	C211.982910,200.465881 213.751984,199.943558 215.521072,199.421249 
	C215.728256,199.800247 215.935440,200.179245 216.142609,200.558243 
	C214.657883,201.291031 213.173141,202.023819 211.449615,202.842239 
z"/>
<path fill="#FAF9FE" opacity="1.000000" stroke="none"
			d="
M194.612732,264.063629 
	C195.120148,264.076660 195.292999,264.138672 195.737152,264.248047 
	C194.872437,265.895386 193.736389,267.495331 192.600342,269.095306 
	C192.154892,268.782654 191.709442,268.469971 191.263992,268.157318 
	C192.268723,266.809082 193.273453,265.460846 194.612732,264.063629 
z"/>
<path fill="#F8F8FF" opacity="1.000000" stroke="none"
			d="
M243.189377,199.318970 
	C242.945480,198.302383 242.978485,197.555771 243.014465,196.436798 
	C243.017426,196.064438 243.463760,195.940872 243.685150,195.874115 
	C244.420792,196.128220 244.935043,196.449097 245.726807,196.888168 
	C246.028702,197.221786 246.053070,197.437210 246.287811,198.082855 
	C246.784912,198.597778 246.968185,198.784210 247.048019,199.072388 
	C247.048019,199.072388 246.973099,199.053711 246.940186,199.032990 
	C247.034546,199.130188 247.161804,199.248077 247.297028,199.626022 
	C246.025436,199.787048 244.745850,199.688004 243.189377,199.318970 
z"/>
<path fill="#F6F6FF" opacity="1.000000" stroke="none"
			d="
M237.442703,201.827530 
	C238.379349,203.486984 238.379349,203.486984 233.824921,204.502838 
	C234.929688,203.651962 236.034439,202.801086 237.442703,201.827530 
z"/>
<path fill="#F8F8FF" opacity="1.000000" stroke="none"
			d="
M256.018127,237.017822 
	C255.411591,238.775024 254.788483,240.516037 254.165375,242.257065 
	C253.561462,241.959900 252.957535,241.662750 252.353622,241.365585 
	C253.336761,239.940369 254.319901,238.515137 255.635559,237.029755 
	C255.968079,236.969620 256.001556,237.001633 256.018127,237.017822 
z"/>
<path fill="#F9F9FF" opacity="1.000000" stroke="none"
			d="
M215.707367,169.851776 
	C216.453659,170.024399 216.947495,170.411530 217.441315,170.798660 
	C216.132370,171.929153 214.823425,173.059662 213.514481,174.190155 
	C213.350403,174.095367 213.186310,174.000580 213.022217,173.905792 
	C213.833115,172.625961 214.644012,171.346130 215.707367,169.851776 
z"/>
<path fill="#F8F8FF" opacity="1.000000" stroke="none"
			d="
M229.072052,207.898407 
	C228.696365,207.883148 228.834976,207.502609 228.894928,207.309326 
	C230.038071,206.158264 231.121262,205.200500 232.204453,204.242722 
	C232.548508,204.766830 232.892563,205.290939 233.236618,205.815048 
	C231.973663,206.514572 230.710709,207.214111 229.072052,207.898407 
z"/>
<path fill="#F8F8FF" opacity="1.000000" stroke="none"
			d="
M228.001358,263.981964 
	C227.886383,262.555817 227.771408,261.129669 227.830002,259.350281 
	C228.003586,258.997009 228.102432,258.898773 228.102448,258.898773 
	C228.731949,260.353149 229.361450,261.807556 229.660126,263.621857 
	C228.886642,263.981842 228.444000,263.981903 228.001358,263.981964 
z"/>
<path fill="#F8F8FF" opacity="1.000000" stroke="none"
			d="
M253.974030,254.530991 
	C254.001724,254.853882 253.766129,255.161484 253.573059,255.175659 
	C252.301086,254.163147 251.222183,253.136459 250.133850,251.795700 
	C250.124405,251.481628 250.068878,251.190979 250.201508,251.125336 
	C251.538193,252.109177 252.742264,253.158646 253.974030,254.530991 
z"/>
<path fill="#F9F9FF" opacity="1.000000" stroke="none"
			d="
M194.710587,146.824463 
	C194.304703,146.427124 194.353409,146.111954 194.614319,145.624939 
	C195.367035,144.787674 195.960190,144.130417 196.761932,143.704010 
	C197.250122,144.441650 197.529739,144.948441 197.897430,145.747604 
	C197.027832,146.326157 196.070160,146.612335 194.710587,146.824463 
z"/>
<path fill="#F9F9FF" opacity="1.000000" stroke="none"
			d="
M208.594681,177.064346 
	C208.158264,177.298813 208.017105,177.180634 208.009857,177.141235 
	C208.958725,175.819046 209.914856,174.536270 210.870987,173.253494 
	C211.304810,173.711166 211.738617,174.168823 212.172424,174.626495 
	C211.125320,175.360947 210.078201,176.095413 208.594681,177.064346 
z"/>
<path fill="#F9F9FF" opacity="1.000000" stroke="none"
			d="
M220.105133,175.662231 
	C220.317230,174.735825 220.847397,173.835434 221.377579,172.935043 
	C221.814728,173.271118 222.251877,173.607193 222.689026,173.943283 
	C221.933762,174.524933 221.178497,175.106583 220.105133,175.662231 
z"/>
<path fill="#F6F6FF" opacity="1.000000" stroke="none"
			d="
M208.955887,246.982208 
	C209.019196,246.343384 209.082489,245.704559 209.145798,245.065735 
	C209.311340,245.060654 209.476868,245.055573 209.642410,245.050476 
	C209.642410,247.339203 209.642410,249.627930 209.642410,251.916641 
	C209.481995,251.931473 209.321564,251.946320 209.161148,251.961151 
	C209.104538,251.213196 209.047928,250.465240 208.992126,249.024689 
	C208.980576,247.882126 208.968231,247.432159 208.955887,246.982208 
z"/>
<path fill="#F8F8FF" opacity="1.000000" stroke="none"
			d="
M243.999695,210.000305 
	C242.817963,209.842163 241.636536,209.683716 240.455109,209.525269 
	C240.562698,209.066452 240.670273,208.607635 240.777847,208.148834 
	C241.811478,208.535370 242.845108,208.921921 243.939667,209.653931 
	C244.000610,209.999390 244.000000,210.000000 243.999695,210.000305 
z"/>
<path fill="#F9F9FF" opacity="1.000000" stroke="none"
			d="
M177.997055,166.996948 
	C179.110245,166.083481 180.226395,165.173080 181.652008,164.117126 
	C181.961472,163.971573 182.000580,164.002380 182.018799,164.020126 
	C180.935333,165.023575 179.833664,166.009277 178.369049,167.000549 
	C178.006104,167.006104 178.000000,167.000000 177.997055,166.996948 
z"/>
<path fill="#F6F6FF" opacity="1.000000" stroke="none"
			d="
M215.160019,255.905884 
	C215.776962,254.878479 216.476746,254.100937 217.176529,253.323395 
	C217.498901,253.751266 217.821274,254.179138 218.143646,254.607010 
	C217.176712,255.123260 216.209793,255.639511 215.160019,255.905884 
z"/>
<path fill="#F6F6FF" opacity="1.000000" stroke="none"
			d="
M209.594711,256.289673 
	C210.442444,256.370544 210.997498,256.586121 211.552551,256.801727 
	C210.964691,257.190491 210.376831,257.579254 209.788971,257.968018 
	C209.626648,257.453491 209.464340,256.938934 209.594711,256.289673 
z"/>
<path fill="#F9F9FF" opacity="1.000000" stroke="none"
			d="
M221.113922,163.341248 
	C221.823883,163.930313 222.226212,164.535599 222.628540,165.140900 
	C222.232330,165.283066 221.836105,165.425217 221.439880,165.567352 
	C221.228699,164.830719 221.017502,164.094101 221.113922,163.341248 
z"/>
<path fill="#F8F8FF" opacity="1.000000" stroke="none"
			d="
M215.986771,263.019501 
	C215.016983,262.511169 214.047195,262.002869 213.077408,261.494537 
	C213.380112,261.073212 213.682800,260.651855 213.985489,260.230530 
	C214.639282,260.927795 215.293091,261.625061 215.974915,262.659241 
	C216.002960,262.996185 215.986771,263.019501 215.986771,263.019501 
z"/>
<path fill="#2F2DFE" opacity="1.000000" stroke="none"
			d="
M254.034943,261.027039 
	C253.066681,261.863068 251.884354,262.469543 250.100677,263.082367 
	C249.323578,263.086365 249.147842,263.084076 248.972137,263.081848 
	C250.232101,262.253723 251.492065,261.425629 253.067841,260.472260 
	C253.529373,260.497162 253.675125,260.647308 254.034943,261.027039 
z"/>
<path fill="#F6F6FF" opacity="1.000000" stroke="none"
			d="
M250.072144,185.063080 
	C249.951553,186.268311 249.771759,187.419876 249.334137,188.810120 
	C249.076324,189.048828 248.972000,188.979843 248.918152,188.945084 
	C248.998795,187.627914 249.133286,186.345520 249.583191,184.980438 
	C249.898621,184.897781 250.012955,185.009415 250.072144,185.063080 
z"/>
<path fill="#F4F0FB" opacity="1.000000" stroke="none"
			d="
M252.920578,279.943451 
	C253.105225,279.088470 253.289871,278.233459 253.474533,277.378479 
	C253.844345,277.497162 254.214142,277.615845 254.583954,277.734497 
	C254.310028,278.471588 254.036102,279.208649 253.390182,279.983521 
	C253.018188,280.021362 252.920578,279.943451 252.920578,279.943451 
z"/>
<path fill="#F9F9FF" opacity="1.000000" stroke="none"
			d="
M249.959641,169.587830 
	C249.701752,170.486496 249.415771,171.089874 249.129791,171.693253 
	C248.857574,171.578339 248.585358,171.463409 248.313141,171.348480 
	C248.617401,170.558868 248.911743,169.765045 249.240768,168.985886 
	C249.274918,168.904999 249.551834,168.841812 249.650543,168.894119 
	C249.778610,168.961990 249.840927,169.153976 249.959641,169.587830 
z"/>
<path fill="#F4F0FB" opacity="1.000000" stroke="none"
			d="
M255.447083,272.993713 
	C256.116913,272.653320 256.778076,272.620697 257.439209,272.588074 
	C257.434906,272.868958 257.430573,273.149872 257.426270,273.430756 
	C256.763672,273.387665 256.101044,273.344543 255.447083,272.993713 
z"/>
<path fill="#F8F8FF" opacity="1.000000" stroke="none"
			d="
M222.548157,265.012634 
	C221.889709,265.345856 221.234711,265.375336 220.579712,265.404785 
	C220.583511,265.128265 220.587311,264.851715 220.591125,264.575195 
	C221.244614,264.619751 221.898102,264.664307 222.548157,265.012634 
z"/>
<path fill="#F4F0FB" opacity="1.000000" stroke="none"
			d="
M246.881760,263.691132 
	C247.122391,264.470276 247.094620,265.139587 247.066833,265.808868 
	C246.612366,265.741028 246.157913,265.673187 245.703445,265.605377 
	C246.006744,264.930664 246.310043,264.255981 246.881760,263.691132 
z"/>
<path fill="#F9F9FF" opacity="1.000000" stroke="none"
			d="
M235.188766,174.273453 
	C234.826126,173.654648 234.729080,173.100220 234.632034,172.545776 
	C234.925537,172.566956 235.472000,172.572189 235.474487,172.611694 
	C235.510574,173.184372 235.473755,173.761642 235.188766,174.273453 
z"/>
<path fill="#FAF9FE" opacity="1.000000" stroke="none"
			d="
M204.561737,271.638306 
	C204.695496,272.295502 204.635437,272.754120 204.575378,273.212708 
	C204.197388,273.011627 203.819427,272.810547 203.441467,272.609436 
	C203.750275,272.219513 204.059097,271.829590 204.561737,271.638306 
z"/>
<path fill="#FAF9FE" opacity="1.000000" stroke="none"
			d="
M210.962799,277.525635 
	C210.584015,278.275146 210.154755,278.721832 209.441986,279.312012 
	C209.102814,278.597931 209.047119,277.740387 208.998367,276.438080 
	C209.005310,275.993347 209.041153,275.958679 209.041153,275.958679 
	C209.664871,276.380066 210.288574,276.801453 210.962799,277.525635 
z"/>
<path fill="#3636FF" opacity="1.000000" stroke="none"
			d="
M212.279663,242.086304 
	C213.146896,242.235657 214.344971,242.323410 215.269730,242.730438 
	C214.201111,242.708038 213.405807,242.366364 212.279663,242.086304 
z"/>
<path fill="#F9F9FF" opacity="1.000000" stroke="none"
			d="
M192.065399,144.119705 
	C191.704849,144.654556 190.986771,145.159241 190.116241,145.382126 
	C190.545151,144.763397 191.126511,144.426468 192.065399,144.119705 
z"/>
<path fill="#F9F9FF" opacity="1.000000" stroke="none"
			d="
M222.382980,167.947525 
	C222.743652,167.655579 223.102478,167.615936 223.461319,167.576294 
	C223.458832,167.832153 223.456329,168.087997 223.453842,168.343872 
	C223.096283,168.295853 222.738708,168.247849 222.382980,167.947525 
z"/>
<path fill="#F8F8FF" opacity="1.000000" stroke="none"
			d="
M227.954437,259.046387 
	C227.411743,258.753448 226.918198,258.411133 226.424652,258.068787 
	C226.609192,257.855011 226.793762,257.641266 226.978333,257.427521 
	C227.308197,257.733673 227.638077,258.039795 228.035187,258.622375 
	C228.102432,258.898773 228.003586,258.997009 227.954437,259.046387 
z"/>
<path fill="#F9F9FF" opacity="1.000000" stroke="none"
			d="
M211.971451,159.041840 
	C211.464813,158.791260 210.943619,158.563309 210.471069,158.259689 
	C210.415802,158.224197 210.628906,157.771057 210.717590,157.511536 
	C211.130630,157.800613 211.543671,158.089676 211.983002,158.685791 
	C212.009293,158.992844 211.971451,159.041840 211.971451,159.041840 
z"/>
<path fill="#3636FF" opacity="1.000000" stroke="none"
			d="
M216.740540,244.315155 
	C217.663345,244.435501 218.369659,244.902878 219.050110,245.708694 
	C218.190842,245.585495 217.357437,245.123840 216.740540,244.315155 
z"/>
<path fill="#3636FF" opacity="1.000000" stroke="none"
			d="
M218.816193,246.342896 
	C219.658768,246.437363 220.364548,246.898849 221.048401,247.703217 
	C220.244110,247.600677 219.461761,247.155289 218.816193,246.342896 
z"/>
<path fill="#FAF9FE" opacity="1.000000" stroke="none"
			d="
M208.662201,247.029221 
	C208.968231,247.432159 208.980576,247.882126 208.991028,248.669708 
	C208.782257,248.363632 208.575378,247.719925 208.662201,247.029221 
z"/>
<path fill="#F9F9FF" opacity="1.000000" stroke="none"
			d="
M219.157242,160.864899 
	C219.238403,161.251175 219.165985,161.486176 219.093567,161.721176 
	C218.828964,161.459641 218.564346,161.198090 218.299744,160.936554 
	C218.534378,160.862228 218.769028,160.787918 219.157242,160.864899 
z"/>
<path fill="#F4F0FB" opacity="1.000000" stroke="none"
			d="
M250.475220,283.865692 
	C250.139160,283.550446 250.042145,283.102570 249.981369,282.310486 
	C250.433792,281.957764 250.849976,281.949280 251.624374,281.960144 
	C251.982590,281.979462 252.078995,282.056244 252.078995,282.056244 
	C251.624069,282.615173 251.169159,283.174133 250.475220,283.865692 
z"/>
<path fill="#F8F8FF" opacity="1.000000" stroke="none"
			d="
M216.011749,262.984497 
	C216.494400,262.842987 216.968262,262.713196 217.442108,262.583374 
	C217.492416,262.873260 217.542725,263.163116 217.593033,263.453003 
	C217.154800,263.450378 216.716583,263.447784 216.132568,263.232361 
	C215.986771,263.019501 216.002960,262.996185 216.011749,262.984497 
z"/>
<path fill="#2020FF" opacity="1.000000" stroke="none"
			d="
M197.487228,155.448517 
	C197.062653,155.764618 196.364975,155.898987 195.311066,156.040756 
	C195.707916,155.787704 196.461029,155.527252 197.487228,155.448517 
z"/>
<path fill="#F9F9FF" opacity="1.000000" stroke="none"
			d="
M213.988846,160.016159 
	C213.434235,159.849045 212.879623,159.681931 212.148224,159.278320 
	C211.971451,159.041840 212.009293,158.992844 212.031143,158.969803 
	C212.597275,159.130753 213.141556,159.314758 213.843689,159.748611 
	C214.001556,159.998474 213.988846,160.016159 213.988846,160.016159 
z"/>
<path fill="#F9F9FF" opacity="1.000000" stroke="none"
			d="
M214.009644,159.990479 
	C214.447098,160.113342 214.876465,160.244217 215.305817,160.375092 
	C214.951385,160.391144 214.596970,160.407211 214.115692,160.219727 
	C213.988846,160.016159 214.001556,159.998474 214.009644,159.990479 
z"/>
<path fill="#3636FF" opacity="1.000000" stroke="none"
			d="
M215.054123,243.386780 
	C215.578003,243.094849 216.207184,243.179031 216.938965,243.648590 
	C216.414169,243.943634 215.786804,243.853271 215.054123,243.386780 
z"/>
<path fill="#F9F9FF" opacity="1.000000" stroke="none"
			d="
M165.094055,158.967926 
	C165.117645,158.699585 165.580963,158.805344 165.790833,158.916779 
	C165.853149,159.394669 165.705612,159.761139 165.558060,160.127594 
	C165.395538,159.830490 165.233002,159.533386 165.094055,158.967926 
z"/>
<path fill="#F4F0FB" opacity="1.000000" stroke="none"
			d="
M253.064545,280.063202 
	C252.919434,280.638550 252.727951,281.172028 252.307739,281.880890 
	C252.078995,282.056244 251.982590,281.979462 251.935730,281.937073 
	C252.080200,281.361115 252.271515,280.827545 252.691711,280.118713 
	C252.920578,279.943451 253.018188,280.021362 253.064545,280.063202 
z"/>
<path fill="#F8F8FF" opacity="1.000000" stroke="none"
			d="
M258.769104,227.989868 
	C258.591278,228.107285 258.412109,228.050308 258.232971,227.993347 
	C258.411255,227.934052 258.589508,227.874756 258.769104,227.989868 
z"/>
<path fill="#3636FF" opacity="1.000000" stroke="none"
			d="
M225.201782,253.807678 
	C225.423874,254.350082 225.514206,255.015762 225.604523,255.681442 
	C225.366135,255.382507 225.127747,255.083572 224.846924,254.480026 
	C224.804504,254.175400 225.070007,253.930939 225.201782,253.807678 
z"/>
<path fill="#FAF9FE" opacity="1.000000" stroke="none"
			d="
M208.985596,276.008606 
	C208.845413,275.575409 208.724960,275.126953 208.604507,274.678497 
	C208.733612,274.946960 208.862717,275.215454 209.016479,275.721313 
	C209.041153,275.958679 209.005310,275.993347 208.985596,276.008606 
z"/>
<path fill="#0C0CFF" opacity="1.000000" stroke="none"
			d="
M284.222656,265.303467 
	C283.833588,265.382935 283.462830,265.492279 283.092041,265.601624 
	C283.371094,265.399292 283.650146,265.196991 284.102020,265.194641 
	C284.274841,265.394592 284.240906,265.333374 284.222656,265.303467 
z"/>
<path fill="#F9F9FF" opacity="1.000000" stroke="none"
			d="
M224.396301,170.714096 
	C224.559464,170.842743 224.583481,171.066162 224.607513,171.289566 
	C224.490738,171.129333 224.373947,170.969086 224.396301,170.714096 
z"/>
<path fill="#F4F0FB" opacity="1.000000" stroke="none"
			d="
M228.139420,264.238800 
	C228.444000,263.981903 228.886642,263.981842 229.661224,263.976013 
	C229.993179,263.970215 230.066055,264.414551 230.115326,264.633545 
	C230.164581,264.852570 230.008972,264.997955 229.934753,265.076385 
	C229.332840,264.935089 228.805161,264.715363 228.139420,264.238800 
z"/>
<path fill="#F4F0FB" opacity="1.000000" stroke="none"
			d="
M248.984512,263.324036 
	C249.147842,263.084076 249.323578,263.086365 249.756287,263.147522 
	C249.816772,263.593536 249.620300,263.980682 249.423828,264.367828 
	C249.281540,264.100647 249.139221,263.833435 248.984512,263.324036 
z"/>
<path fill="#F8F8FF" opacity="1.000000" stroke="none"
			d="
M250.974731,245.980347 
	C251.109436,245.549881 251.244141,245.119415 251.378845,244.688950 
	C251.395004,245.047989 251.411133,245.407043 251.213135,245.882919 
	C250.998978,245.999756 250.974747,245.980347 250.974731,245.980347 
z"/>
<path fill="#2F2DFE" opacity="1.000000" stroke="none"
			d="
M246.912903,198.924896 
	C246.968185,198.784210 246.784912,198.597778 246.326294,198.405762 
	C246.419189,198.383881 246.626999,198.543533 246.912903,198.924896 
z"/>
<path fill="#F6F6FF" opacity="1.000000" stroke="none"
			d="
M219.534393,254.551056 
	C219.476395,254.586411 219.592392,254.515717 219.534393,254.551056 
z"/>
<path fill="#F6F6FF" opacity="1.000000" stroke="none"
			d="
M298.965393,252.025085 
	C299.223114,252.201935 299.513336,252.353943 299.757660,252.760803 
	C299.711761,253.015656 299.380493,253.028046 299.218872,252.754807 
	C299.058075,252.303284 299.058929,252.125000 299.059814,251.946701 
	C299.059814,251.946701 298.997894,252.000244 298.965393,252.025085 
z"/>
<path fill="#0808FF" opacity="1.000000" stroke="none"
			d="
M298.698730,251.904297 
	C299.058929,252.125000 299.058075,252.303284 299.053223,252.748993 
	C298.863586,253.038315 298.677979,253.060226 298.219849,253.148499 
	C298.077423,252.763870 298.207520,252.312897 298.698730,251.904297 
z"/>
<path fill="#4141FF" opacity="1.000000" stroke="none"
			d="
M169.275421,291.918518 
	C169.255478,291.674377 169.507339,291.441986 170.024567,291.224548 
	C170.042374,291.469788 169.794800,291.700043 169.275421,291.918518 
z"/>
<path fill="#4141FF" opacity="1.000000" stroke="none"
			d="
M170.523926,291.310486 
	C170.244431,291.168610 170.167221,291.009857 170.037506,290.591553 
	C170.146683,290.247620 170.308334,290.163208 170.742493,290.102692 
	C171.015015,290.126587 171.006165,290.560577 171.003433,290.777618 
	C171.000702,290.994659 170.726181,291.293671 170.523926,291.310486 
z"/>
<path fill="#EDEDFF" opacity="1.000000" stroke="none"
			d="
M179.449371,288.530762 
	C179.416122,288.474548 179.482635,288.586945 179.449371,288.530762 
z"/>
<path fill="#F9F9FF" opacity="1.000000" stroke="none"
			d="
M251.117996,216.344864 
	C251.009796,216.166412 251.435547,216.098511 251.649139,216.120453 
	C251.862717,216.142395 251.925797,216.574509 251.911041,216.792297 
	C251.631393,216.905014 251.408020,216.742752 251.117996,216.344864 
z"/>
<path fill="#EDEDFF" opacity="1.000000" stroke="none"
			d="
M180.442673,285.541565 
	C180.403610,285.478729 180.481735,285.604431 180.442673,285.541565 
z"/>
<path fill="#3636FF" opacity="1.000000" stroke="none"
			d="
M220.826904,248.371307 
	C221.310486,248.119064 221.668167,248.266846 222.027908,248.729919 
	C221.586990,248.953934 221.143997,248.862656 220.826904,248.371307 
z"/>
<path fill="#0C0CFF" opacity="1.000000" stroke="none"
			d="
M354.493500,217.492279 
	C354.513123,217.491470 354.473877,217.493088 354.493500,217.492279 
z"/>
<path fill="#F8F8FF" opacity="1.000000" stroke="none"
			d="
M251.008759,246.011734 
	C250.912231,246.049957 250.805893,246.076202 250.837158,246.041397 
	C250.974747,245.980347 250.998978,245.999756 251.008759,246.011734 
z"/>
<path fill="#F9F2F8" opacity="1.000000" stroke="none"
			d="
M227.018051,292.894348 
	C220.898361,300.740387 213.486206,305.917511 203.840683,307.338745 
	C202.342667,307.559448 200.154846,307.374908 199.302979,306.445526 
	C198.524414,305.596161 198.591705,303.209900 199.222687,301.982239 
	C200.721634,299.065948 202.365173,296.012482 204.679306,293.765137 
	C212.499863,286.170380 221.471375,280.817017 233.992813,281.029022 
	C231.469955,285.349792 229.351273,288.978363 227.018051,292.894348 
z"/>
<path fill="#FFFFFF" opacity="1.000000" stroke="none"
			d="
M234.228790,358.234955 
	C233.693710,358.454437 233.158630,358.673889 232.623535,358.893341 
	C232.754013,358.414001 232.884491,357.934662 233.430603,357.578552 
	C233.973740,357.879486 234.101273,358.057220 234.228790,358.234955 
z"/>
<path fill="#FFFFFF" opacity="1.000000" stroke="none"
			d="
M233.698486,357.408813 
	C233.636398,356.927429 233.760513,356.769165 234.055344,356.566528 
	C234.414215,356.653229 234.640808,356.814453 235.179016,357.253357 
	C235.236374,357.742889 234.982101,357.954803 234.478317,358.200836 
	C234.101273,358.057220 233.973740,357.879486 233.698486,357.408813 
z"/>
<path fill="#FFFFFF" opacity="1.000000" stroke="none"
			d="
M225.646515,307.320709 
	C225.629456,307.619110 225.409958,307.681610 225.190460,307.744141 
	C225.275009,307.524353 225.359543,307.304596 225.646515,307.320709 
z"/>
<path fill="#FFF9F9" opacity="1.000000" stroke="none"
			d="
M346.326874,301.382996 
	C347.903656,296.837402 349.480438,292.291809 351.309906,287.017700 
	C348.793121,286.449738 346.504303,285.933228 344.199280,285.413055 
	C341.890533,290.664490 340.119476,295.871582 337.437012,300.556854 
	C331.242004,311.376953 322.890503,320.120941 310.621429,323.893188 
	C307.645264,324.808228 303.101257,325.015839 300.992493,323.362396 
	C297.564575,320.674591 299.534058,316.159180 301.210236,312.767151 
	C307.222382,300.600403 317.205170,292.570129 329.198120,286.772095 
	C338.704407,282.176208 348.751434,280.300568 359.252991,281.087372 
	C361.779022,281.276611 364.255951,282.121704 365.244965,282.096802 
	C359.465149,288.732269 353.685303,295.367737 347.370544,301.926697 
	C346.666077,301.694489 346.496460,301.538727 346.326874,301.382996 
z"/>
<path fill="#F9F2F8" opacity="1.000000" stroke="none"
			d="
M366.315979,307.220032 
	C363.854767,309.530121 361.648987,311.577271 358.876343,314.150482 
	C358.626221,308.139740 362.202026,304.769318 368.140900,304.372253 
	C367.569031,305.314117 367.070251,306.135620 366.315979,307.220032 
z"/>
<path fill="#FFF9F9" opacity="1.000000" stroke="none"
			d="
M347.080383,302.093964 
	C346.680023,302.489197 346.034943,302.640656 345.389862,302.792145 
	C345.551056,302.452423 345.712219,302.112671 346.100128,301.577972 
	C346.496460,301.538727 346.666077,301.694489 347.080383,302.093964 
z"/>
<path fill="#FFFFFF" opacity="1.000000" stroke="none"
			d="
M333.250000,320.750000 
	C333.299988,320.466644 333.600006,320.433319 333.899994,320.399963 
	C333.766663,320.600006 333.633331,320.799988 333.250000,320.750000 
z"/>
<path fill="#FFFFFF" opacity="1.000000" stroke="none"
			d="
M349.555664,224.419876 
	C343.803528,229.374725 343.135468,235.081345 344.881073,241.856827 
	C345.692902,245.007904 345.621765,248.730133 344.768280,251.872223 
	C343.871429,255.173935 340.501831,257.141846 337.239716,255.795197 
	C334.871674,254.817612 331.815887,252.135284 331.591217,249.953186 
	C330.845764,242.712387 330.793488,235.313065 331.455109,228.063980 
	C331.673126,225.675034 334.868530,223.557816 336.702484,221.316345 
	C336.886383,221.947174 337.070312,222.578003 337.254242,223.208817 
	C341.339569,223.457870 345.424927,223.706909 349.555664,224.419876 
z"/>
<path fill="#FFFFFF" opacity="1.000000" stroke="none"
			d="
M199.984207,231.946167 
	C199.984207,231.946167 199.528152,231.909149 199.528152,231.909149 
	C199.528152,231.909149 199.114502,232.104691 198.998322,232.301575 
	C191.899750,232.300842 184.917389,232.103226 177.469955,231.473709 
	C176.926651,229.920898 176.848419,228.799988 176.831955,228.564240 
	C171.657272,228.350571 166.851517,228.152130 161.995636,227.601395 
	C156.755722,219.451981 156.717392,217.836349 161.428360,210.879974 
	C161.778427,210.363052 161.815567,209.634201 162.387833,208.999100 
	C164.963196,209.230301 167.185455,209.302856 169.317291,209.779678 
	C170.217651,209.981064 170.927612,211.033737 171.724106,211.699478 
	C172.178650,211.100616 173.141220,210.280136 172.994431,209.943604 
	C172.514999,208.844635 171.524048,207.013916 170.920929,207.085037 
	C167.912003,207.439865 164.964111,208.312119 161.617493,209.001511 
	C156.947754,210.674118 153.600922,217.375275 155.469330,221.315018 
	C156.822556,224.168472 157.190323,228.339432 162.033859,228.414734 
	C163.609238,229.524872 165.045456,230.447876 166.615494,230.963104 
	C168.355240,231.534042 170.217300,231.732330 172.026093,232.092896 
	C168.062347,233.301178 164.151962,234.775101 160.108658,235.587418 
	C158.484802,235.913651 156.184265,235.279953 154.850281,234.239105 
	C147.677551,228.642685 145.812836,217.483154 150.279449,207.380173 
	C152.598099,204.691193 154.776505,202.381851 157.064713,199.697266 
	C159.567245,198.765656 161.959976,198.209259 164.674438,197.342407 
	C164.996185,197.031937 164.951569,197.023636 164.784286,197.401962 
	C165.065247,197.867020 165.513489,197.953751 165.976013,198.052307 
	C165.990311,198.064133 165.966522,198.102631 165.966522,198.102631 
	C168.595276,202.252563 172.290390,201.191330 176.262939,200.610962 
	C176.824234,205.145538 176.199432,209.561081 177.576721,213.223785 
	C180.208572,220.222900 188.397247,222.924713 197.176651,220.436050 
	C200.026443,219.628235 202.707870,218.226456 205.840164,217.075745 
	C206.827133,217.043427 207.440247,217.031723 208.359894,217.012955 
	C208.451569,219.083252 208.236694,221.160599 207.547455,223.688354 
	C206.333359,225.542450 205.593613,226.946121 204.590698,228.426987 
	C203.869324,229.021362 203.411133,229.538559 202.994659,230.046295 
	C203.036407,230.036865 203.033539,229.951309 202.669006,229.888870 
	C202.184921,230.222473 202.065399,230.618515 201.979858,231.016083 
	C202.013870,231.017639 202.024017,230.950287 201.724716,230.735474 
	C200.933304,231.006195 200.441208,231.491699 199.974823,231.987640 
	C200.000534,231.998062 199.984207,231.946167 199.984207,231.946167 
M180.696808,226.585052 
	C180.989914,226.366699 181.283005,226.148361 181.576111,225.930023 
	C181.397720,225.743866 181.219330,225.557709 181.040955,225.371567 
	C180.810257,225.654633 180.579559,225.937698 180.696808,226.585052 
z"/>
<path fill="#FFFFFF" opacity="1.000000" stroke="none"
			d="
M210.042953,208.549103 
	C213.718140,208.815018 217.374786,209.498947 220.756790,210.622986 
	C218.538010,211.596390 216.593857,212.129654 214.329498,212.852417 
	C210.489182,213.827042 209.512909,212.124542 210.042953,208.549103 
z"/>
<path fill="#EDEDFF" opacity="1.000000" stroke="none"
			d="
M193.583618,234.881104 
	C190.490891,236.335571 187.006561,237.662277 183.209534,239.116470 
	C176.233063,239.243942 169.569305,239.243942 162.905548,239.243942 
	C162.886200,238.690079 162.866852,238.136230 162.847488,237.582367 
	C172.579117,233.312408 182.821136,233.473511 193.583618,234.881104 
z"/>
<path fill="#F9F9FF" opacity="1.000000" stroke="none"
			d="
M162.045746,227.953705 
	C166.851517,228.152130 171.657272,228.350571 176.831955,228.564240 
	C176.848419,228.799988 176.926651,229.920898 177.006134,231.414673 
	C175.623032,231.927795 174.238724,232.068054 172.440247,232.150589 
	C170.217300,231.732330 168.355240,231.534042 166.615494,230.963104 
	C165.045456,230.447876 163.609238,229.524872 162.057037,228.390900 
	C162.000076,228.000107 162.045746,227.953690 162.045746,227.953705 
z"/>
<path fill="#EDEDFF" opacity="1.000000" stroke="none"
			d="
M164.976166,197.047440 
	C168.040680,193.584091 171.002884,194.140961 173.428223,199.861969 
	C170.654114,199.037003 168.709030,198.458557 166.365234,197.991379 
	C165.966522,198.102631 165.990311,198.064133 166.060944,197.722015 
	C165.738235,197.261124 165.344910,197.142380 164.951569,197.023636 
	C164.951569,197.023636 164.996185,197.031937 164.976166,197.047440 
z"/>
<path fill="#EDEDFF" opacity="1.000000" stroke="none"
			d="
M204.853867,228.349792 
	C205.593613,226.946121 206.333359,225.542450 207.405182,224.059692 
	C208.138260,227.975098 208.539261,231.969574 208.936523,236.412903 
	C205.983917,235.732162 201.821091,236.951538 200.276489,232.242691 
	C199.984207,231.946167 200.000534,231.998062 200.243195,232.305145 
	C200.998581,232.058243 201.511292,231.504257 202.024017,230.950287 
	C202.024017,230.950287 202.013870,231.017639 202.293945,231.012054 
	C202.727188,230.654755 202.880371,230.303040 203.033539,229.951309 
	C203.033539,229.951309 203.036407,230.036865 203.203552,229.885651 
	C203.865082,229.272873 204.359467,228.811325 204.853867,228.349792 
z"/>
<path fill="#F9F9FF" opacity="1.000000" stroke="none"
			d="
M161.998184,209.003876 
	C161.815567,209.634201 161.778427,210.363052 161.428360,210.879974 
	C156.717392,217.836349 156.755722,219.451981 161.995636,227.601379 
	C162.045746,227.953690 162.000076,228.000107 161.976898,228.023956 
	C157.190323,228.339432 156.822556,224.168472 155.469330,221.315018 
	C153.600922,217.375275 156.947754,210.674118 161.620132,209.000366 
	C162.000000,209.000000 161.998184,209.003876 161.998184,209.003876 
z"/>
<path fill="#2F2DFE" opacity="1.000000" stroke="none"
			d="
M161.997375,209.001160 
	C164.964111,208.312119 167.912003,207.439865 170.920929,207.085037 
	C171.524048,207.013916 172.514999,208.844635 172.994431,209.943604 
	C173.141220,210.280136 172.178650,211.100616 171.724106,211.699478 
	C170.927612,211.033737 170.217651,209.981064 169.317291,209.779678 
	C167.185455,209.302856 164.963196,209.230301 162.387833,208.999100 
	C161.998184,209.003876 162.000000,209.000000 161.997375,209.001160 
z"/>
<path fill="#F9F9FF" opacity="1.000000" stroke="none"
			d="
M180.522827,226.402908 
	C180.579559,225.937698 180.810257,225.654633 181.040955,225.371552 
	C181.219330,225.557709 181.397720,225.743866 181.576111,225.930023 
	C181.283005,226.148361 180.989914,226.366699 180.522827,226.402908 
z"/>
<path fill="#4141FF" opacity="1.000000" stroke="none"
			d="
M204.590698,228.426987 
	C204.359467,228.811325 203.865082,229.272873 203.161804,229.895081 
	C203.411133,229.538559 203.869324,229.021362 204.590698,228.426987 
z"/>
<path fill="#4141FF" opacity="1.000000" stroke="none"
			d="
M201.724701,230.735474 
	C201.511292,231.504257 200.998581,232.058243 200.217468,232.294724 
	C200.441208,231.491699 200.933304,231.006195 201.724701,230.735474 
z"/>
<path fill="#4141FF" opacity="1.000000" stroke="none"
			d="
M202.669006,229.888870 
	C202.880371,230.303040 202.727188,230.654755 202.259933,231.010498 
	C202.065399,230.618515 202.184921,230.222473 202.669006,229.888870 
z"/>
<path fill="#3636FF" opacity="1.000000" stroke="none"
			d="
M164.784286,197.401962 
	C165.344910,197.142380 165.738235,197.261124 166.046661,197.710175 
	C165.513489,197.953751 165.065247,197.867020 164.784286,197.401962 
z"/>
</svg>